<svg width="100" height="975" viewBox="0 0 100 975" fill="none" xmlns="http://www.w3.org/2000/svg">
<path d="M82.5533 2.56801C83.4438 8.76938 85.2852 14.3722 88.0775 19.3765C90.8697 24.4808 94.1635 28.5359 97.9589 31.5417L97.9236 54.4917L2.70506 33.9455L2.75478 1.54555L72.4819 16.5026L72.5068 0.302587L82.5533 2.56801ZM1.42416 86.6628C1.42692 84.8628 1.53037 82.6129 1.73452 79.9132C1.83866 77.2134 2.14296 74.4138 2.64741 71.5146C3.05186 68.6152 3.60623 65.7661 4.31053 62.9671C5.11467 60.2684 6.11835 57.8699 7.32157 55.7718L28.3139 60.754L28.2785 83.854C27.5785 83.8529 26.6786 83.8015 25.5787 83.6998C24.4787 83.6981 23.3287 83.6964 22.1287 83.6945C20.9287 83.6927 19.6787 83.7408 18.3785 83.8388C17.1782 84.0369 16.0778 84.2852 15.0774 84.5837C14.0768 84.9822 13.2259 85.5309 12.5248 86.2298C11.9236 87.0289 11.6221 88.0284 11.6202 89.2284C11.6152 92.5284 14.3601 95.8326 19.855 99.141C25.45 102.45 34.4959 105.114 46.9928 107.133L46.9951 105.633C43.7996 102.728 41.355 99.174 39.6615 94.9714C38.0679 90.769 37.2746 86.4178 37.2815 81.9178C37.2875 78.0178 37.8926 74.6687 39.0969 71.8705C40.401 69.1725 42.1545 66.9252 44.3573 65.1286C46.5599 63.432 49.1618 62.186 52.163 61.3906C55.2642 60.5953 58.6148 60.2005 62.2148 60.206C68.8148 60.2161 74.4631 61.3748 79.1595 63.682C83.8558 66.0892 87.7009 69.2951 90.6948 73.2997C93.6886 77.3043 95.8815 81.9577 97.2734 87.2598C98.6651 92.662 99.3563 98.363 99.3471 104.363C99.3387 109.863 98.681 114.862 97.3741 119.36C96.167 123.958 94.061 127.905 91.0559 131.2C88.1509 134.496 84.247 137.04 79.3442 138.832C74.4413 140.725 68.3398 141.666 61.0398 141.654C53.6399 141.643 46.3415 140.582 39.1447 138.471C32.0478 136.46 25.7028 133.2 20.1097 128.691C14.5164 124.283 9.9752 118.576 6.48594 111.571C3.09654 104.665 1.40927 96.3627 1.42416 86.6628ZM88.9946 105.997C88.9984 103.497 87.9517 101.346 85.8545 99.5423C83.7571 97.8391 81.1593 96.3851 78.0612 95.1804C75.0629 94.0758 71.8141 93.2708 68.3149 92.7654C64.8156 92.26 61.716 92.0053 59.016 92.0011C56.616 91.9975 54.7657 92.2446 53.4649 92.7426C52.264 93.3408 51.662 94.6399 51.6589 96.6398C51.6548 99.3398 52.7012 101.641 54.7983 103.545C56.9954 105.448 59.593 107.002 62.5912 108.207C65.5893 109.411 68.6879 110.316 71.887 110.921C75.1861 111.526 77.9356 111.83 80.1356 111.834C82.7356 111.838 84.8363 111.391 86.4377 110.493C88.1391 109.596 88.9914 108.097 88.9946 105.997ZM99.1903 206.534C99.1874 208.434 99.0841 210.584 98.8804 212.984C98.6766 215.483 98.3228 217.983 97.8189 220.482C97.4149 223.081 96.8111 225.58 96.0074 227.979C95.3036 230.478 94.3502 232.677 93.1473 234.575L72.1547 229.743L72.1904 206.493C73.2902 206.594 74.3401 206.696 75.3399 206.797C76.3397 206.899 77.3897 206.951 78.4897 206.952C81.0897 206.956 83.4401 206.66 85.541 206.063C87.742 205.466 88.8437 204.318 88.8463 202.618C88.8482 201.418 88.2003 200.017 86.9028 198.415C85.6052 196.813 83.5578 195.16 80.7604 193.456C77.963 191.751 74.3654 190.146 69.9678 188.639C65.5701 187.132 60.322 185.874 54.2235 184.865L54.2212 186.365C57.4168 189.27 59.8613 192.824 61.5549 197.026C63.2483 201.329 64.0915 205.73 64.0846 210.23C64.0728 217.93 61.7144 223.427 57.0093 226.719C52.4042 230.012 46.1017 231.653 38.1017 231.64C32.0017 231.631 26.7032 230.673 22.2061 228.766C17.809 226.859 13.9637 223.803 10.6702 219.598C7.8757 215.994 5.58269 211.44 3.79113 205.938C2.09942 200.535 1.25924 194.134 1.2706 186.734C1.27873 181.434 1.83625 176.535 2.94315 172.036C4.1499 167.638 6.15581 163.791 8.96087 160.495C11.8658 157.3 15.7196 154.806 20.5224 153.013C25.4251 151.221 31.5765 150.33 38.9765 150.342C46.8765 150.354 54.4748 151.465 61.7714 153.677C69.0679 155.988 75.4626 159.448 80.9555 164.056C86.5484 168.665 90.9895 174.471 94.2788 181.476C97.5679 188.581 99.2051 196.934 99.1903 206.534ZM11.4717 185.999C11.4681 188.399 12.5648 190.501 14.7621 192.304C16.9593 194.108 19.6571 195.562 22.8554 196.667C26.0537 197.772 29.4525 198.577 33.0517 199.083C36.7508 199.688 40.0503 199.993 42.9503 199.998C45.3503 200.001 47.2007 199.704 48.5017 199.106C49.8024 198.608 50.4544 197.359 50.4574 195.359C50.4616 192.659 49.3151 190.357 47.018 188.454C44.8209 186.551 42.1234 184.946 38.9254 183.642C35.8272 182.437 32.5786 181.532 29.1795 180.927C25.7803 180.421 22.9307 180.167 20.6307 180.163C17.8307 180.159 15.58 180.606 13.8786 181.503C12.2773 182.401 11.475 183.899 11.4717 185.999ZM99.051 297.316C99.0391 305.116 97.9292 311.514 95.7216 316.51C93.5139 321.507 90.1078 325.452 85.5034 328.345C82.4003 330.34 78.848 331.885 74.8463 332.978C70.9446 334.072 66.4937 334.616 61.4937 334.608C57.2938 334.602 52.9944 334.195 48.5956 333.388C44.1968 332.581 39.9486 331.425 35.8509 329.919C31.7532 328.412 27.856 326.606 24.1592 324.501C20.5623 322.495 17.4157 320.24 14.7196 317.736C9.7265 313.228 6.1844 308.073 4.0933 302.27C2.10221 296.467 1.11303 289.415 1.12576 281.115C1.13804 273.115 2.04801 266.617 3.85568 261.619C5.6632 256.722 8.56918 252.827 12.5736 249.933C15.4773 247.537 19.1301 245.743 23.5319 244.55C28.0336 243.456 33.2344 242.914 39.1344 242.924C44.4344 242.932 49.5836 243.44 54.5821 244.447C59.6806 245.455 64.4283 246.912 68.8254 248.819C73.2223 250.826 77.2186 253.232 80.8143 256.038C84.41 258.843 87.4551 262.048 89.9496 265.652C92.9432 269.856 95.186 274.51 96.6782 279.612C98.2702 284.814 99.0612 290.716 99.051 297.316ZM11.6262 280.831C11.6231 282.831 12.6702 284.733 14.7675 286.536C16.8645 288.439 19.6119 290.194 23.0094 291.799C26.5069 293.404 30.4548 294.81 34.8529 296.017C39.3509 297.324 43.9492 298.431 48.6479 299.338C53.4465 300.246 58.0954 300.953 62.5946 301.46C67.1938 301.967 71.3935 302.223 75.1935 302.229C80.2934 302.237 83.7941 301.792 85.6955 300.895C87.6969 299.998 88.6989 298.7 88.7015 297C88.7047 294.9 87.6578 292.898 85.5607 290.995C83.5636 289.092 80.8663 287.338 77.4688 285.732C74.1712 284.127 70.3235 282.621 65.9257 281.215C61.5277 279.908 57.0295 278.751 52.431 277.744C47.8324 276.837 43.2835 276.13 38.7842 275.623C34.285 275.116 30.1854 274.86 26.4854 274.854C20.8854 274.846 16.9846 275.39 14.7829 276.486C12.6812 277.583 11.629 279.031 11.6262 280.831ZM47.7697 382.882C48.2695 382.983 48.7693 383.084 49.2692 383.185C49.769 383.285 50.319 383.336 50.919 383.337C52.719 383.34 54.3695 382.992 55.8706 382.295C57.4715 381.697 58.2734 380.448 58.2763 378.548C58.2789 376.848 57.5315 375.147 56.0341 373.445C54.6368 371.743 52.7381 370.89 50.3381 370.886C48.7381 370.884 47.4375 371.282 46.4362 372.08C45.5348 372.979 44.7831 374.128 44.1809 375.527C43.5788 376.926 43.0764 378.475 42.6738 380.174C42.271 381.974 41.8684 383.723 41.4658 385.423C40.8621 387.822 40.1086 390.071 39.2054 392.169C38.402 394.368 37.299 396.316 35.8964 398.014C34.4938 399.712 32.7417 401.059 30.6402 402.056C28.6387 403.053 26.1379 403.549 23.1379 403.544C18.9379 403.538 15.3895 402.533 12.4925 400.528C9.69545 398.624 7.3996 395.92 5.60497 392.418C3.91019 389.015 2.71641 384.963 2.02362 380.262C1.33068 375.661 0.988276 370.71 0.996409 365.41C1.00884 357.31 1.61912 350.611 2.82725 345.313C4.03538 340.015 5.19106 336.317 6.29428 334.219L21.2894 337.392L21.2584 357.642C20.7585 357.541 20.2586 357.49 19.7586 357.489C19.3586 357.489 18.9086 357.488 18.4086 357.487C16.1086 357.484 14.2578 357.981 12.8563 358.979C11.5546 360.077 10.9018 361.926 10.8978 364.526C10.8933 367.426 11.6902 369.477 13.2883 370.679C14.9863 371.982 16.5353 372.634 17.9353 372.636C19.3353 372.639 20.5362 372.09 21.5379 370.992C22.6394 369.994 23.5414 368.695 24.2438 367.096C25.0463 365.497 25.6991 363.698 26.2021 361.699C26.8051 359.8 27.3579 357.951 27.8606 356.152C28.1626 354.852 28.6649 353.353 29.3676 351.654C30.07 350.055 31.0724 348.507 32.3747 347.009C33.677 345.511 35.3289 344.263 37.3304 343.266C39.432 342.269 42.0327 341.773 45.1327 341.778C49.5327 341.785 53.1811 342.841 56.0779 344.945C59.0745 347.15 61.4702 349.953 63.265 353.356C65.0596 356.859 66.3536 360.761 67.147 365.062C67.9403 369.463 68.3335 373.864 68.3268 378.264C68.3183 383.764 67.8103 388.963 66.8028 393.861C65.7953 398.76 64.4892 402.758 62.8844 405.855L47.7397 402.382L47.7697 382.882ZM1.99161 498.869L10.2471 495.281L10.2485 494.381C9.44958 493.68 8.50112 492.679 7.40312 491.377C6.30511 490.075 5.25772 488.374 4.26095 486.272C3.26417 484.171 2.46801 481.669 1.87246 478.769C1.17676 475.968 0.831743 472.717 0.83742 469.017C0.843559 465.017 1.34947 461.168 2.35514 457.469C3.36067 453.871 4.91557 450.673 7.01987 447.876C9.12416 445.08 11.8276 442.834 15.1302 441.139C18.4328 439.444 22.4341 438.6 27.1341 438.607C30.9341 438.613 34.5332 439.219 37.9313 440.424C41.3293 441.729 44.4263 443.684 47.2224 446.288C50.0184 448.892 52.4633 452.196 54.5572 456.199C56.651 460.203 58.2936 465.005 59.4851 470.607C62.387 469.311 64.7385 468.365 66.5394 467.768C68.3403 467.171 70.3908 466.874 72.6908 466.877C76.6908 466.883 80.2896 467.689 83.4871 469.294C86.6846 470.899 89.3812 473.153 91.5767 476.056C93.8723 478.96 95.617 482.412 96.8108 486.414C98.1045 490.516 98.7477 494.967 98.7404 499.767C98.7282 507.667 97.0184 514.065 93.6109 518.959C90.3032 523.954 85.3494 526.447 78.7494 526.437C75.2494 526.431 72.4005 525.727 70.2026 524.323C68.0046 523.02 66.2071 521.417 64.81 519.515C63.4129 517.613 62.3161 515.561 61.5194 513.36C60.7227 511.259 59.9754 509.458 59.2777 507.957L44.8667 515.135C49.0621 518.141 53.0087 520.347 56.7066 521.753L56.6902 532.403C53.0918 531.397 49.594 529.942 46.1969 528.037C42.8997 526.232 39.6027 524.277 36.3059 522.171L34.0582 520.668L1.932 537.719L1.99161 498.869ZM51.2284 474.944C50.231 473.243 48.2332 471.79 45.2351 470.585C42.2368 469.481 39.1876 468.926 36.0876 468.921C33.7876 468.918 31.5371 469.264 29.336 469.961C27.1349 470.657 25.1834 471.654 23.4814 472.952C21.7793 474.349 20.3767 475.997 19.2738 477.895C18.2709 479.794 17.7676 481.943 17.7639 484.343C17.7615 485.943 17.9596 487.143 18.3584 487.944C18.7572 488.745 19.306 489.495 20.0049 490.196L51.2284 474.944ZM90.4871 501.855C90.4908 499.455 89.9435 497.704 88.8452 496.602C87.8467 495.601 86.6475 495.099 85.2475 495.097C83.5475 495.094 81.4965 495.741 79.0945 497.037L67.5351 503.169C68.3302 506.371 69.8765 508.773 72.174 510.376C74.4716 511.98 76.9204 512.784 79.5203 512.788C82.3203 512.792 84.8218 511.846 87.0247 509.949C89.3275 508.153 90.4816 505.455 90.4871 501.855ZM81.6611 583.964C82.5516 590.165 84.393 595.768 87.1853 600.772C89.9775 605.877 93.2713 609.932 97.0667 612.937L97.0315 635.887L1.81288 615.341L1.8626 582.941L71.5897 597.898L71.6146 581.698L81.6611 583.964ZM0.531982 668.059C0.534745 666.259 0.638197 664.009 0.84234 661.309C0.946483 658.609 1.25078 655.81 1.75523 652.91C2.15968 650.011 2.71405 647.162 3.41835 644.363C4.22249 641.664 5.22617 639.266 6.42939 637.168L27.4218 642.15L27.3863 665.25C26.6863 665.249 25.7864 665.197 24.6866 665.096C23.5866 665.094 22.4366 665.092 21.2366 665.09C20.0366 665.088 18.7865 665.137 17.4863 665.235C16.286 665.433 15.1856 665.681 14.1852 665.979C13.1846 666.378 12.3337 666.927 11.6327 667.626C11.0314 668.425 10.7299 669.424 10.7281 670.624C10.723 673.924 13.4679 677.228 18.9629 680.537C24.5578 683.845 33.6037 686.509 46.1006 688.528L46.1029 687.028C42.9074 684.124 40.4628 680.57 38.7693 676.367C37.1757 672.165 36.3824 667.814 36.3893 663.314C36.3953 659.414 37.0004 656.064 38.2047 653.266C39.5089 650.568 41.2623 648.321 43.4651 646.524C45.6677 644.828 48.2696 643.582 51.2708 642.786C54.3721 641.991 57.7227 641.596 61.3227 641.602C67.9226 641.612 73.5709 642.771 78.2673 645.078C82.9637 647.485 86.8087 650.691 89.8026 654.696C92.7965 658.7 94.9893 663.353 96.3812 668.656C97.7729 674.058 98.4641 679.759 98.4549 685.759C98.4465 691.259 97.7888 696.258 96.4819 700.756C95.2749 705.354 93.1688 709.301 90.1637 712.596C87.2587 715.892 83.3548 718.436 78.452 720.228C73.5491 722.121 67.4477 723.061 60.1477 723.05C52.7477 723.039 45.4493 721.978 38.2525 719.866C31.1556 717.856 24.8106 714.596 19.2175 710.087C13.6243 705.679 9.08302 699.972 5.59377 692.966C2.20436 686.061 0.517097 677.759 0.531982 668.059ZM88.1024 687.393C88.1063 684.893 87.0596 682.741 84.9623 680.938C82.8649 679.235 80.2672 677.781 77.169 676.576C74.1707 675.472 70.9219 674.667 67.4227 674.161C63.9235 673.656 60.8239 673.401 58.1239 673.397C55.7239 673.393 53.8735 673.64 52.5727 674.138C51.3718 674.737 50.7698 676.036 50.7667 678.036C50.7626 680.736 51.8091 683.037 53.9061 684.94C56.1032 686.844 58.7008 688.398 61.699 689.602C64.6971 690.807 67.7958 691.712 70.9948 692.317C74.2939 692.922 77.0435 693.226 79.2435 693.229C81.8435 693.233 83.9441 692.787 85.5455 691.889C87.2469 690.992 88.0992 689.493 88.1024 687.393ZM82.2107 812.355C79.0211 805.55 74.5802 799.643 68.8878 794.635C63.2955 789.626 56.9018 785.516 49.7067 782.305C42.5116 779.094 34.7653 776.682 26.4678 775.07C18.2701 773.557 9.97127 772.794 1.57128 772.781L1.621 740.381C4.121 740.385 7.22053 740.69 10.9196 741.296C14.7187 741.901 18.8672 742.858 23.3652 744.165C27.8632 745.472 32.5606 747.179 37.4574 749.286C42.3542 751.394 47.1502 753.951 51.8456 756.958C56.541 759.966 60.9856 763.473 65.1795 767.479C69.3734 771.485 73.0164 776.041 76.1085 781.146L76.1785 735.546L96.8716 740.078L96.7556 815.677L82.2107 812.355ZM98.1784 865.967C98.1664 873.767 97.0566 880.166 94.8489 885.162C92.6413 890.159 89.2352 894.104 84.6308 896.996C81.5277 898.992 77.9753 900.536 73.9736 901.63C70.072 902.724 65.6211 903.267 60.6211 903.26C56.4211 903.253 52.1218 902.847 47.723 902.04C43.3242 901.233 39.076 900.077 34.9783 898.57C30.8806 897.064 26.9834 895.258 23.2866 893.152C19.6897 891.147 16.5431 888.892 13.847 886.388C8.85387 881.88 5.31178 876.725 3.22068 870.921C1.22959 865.118 0.240406 858.067 0.253143 849.767C0.265419 841.767 1.17539 835.268 2.98306 830.271C4.79058 825.374 7.69656 821.478 11.701 818.584C14.6047 816.189 18.2574 814.395 22.6593 813.201C27.161 812.108 32.3618 811.566 38.2618 811.575C43.5618 811.583 48.711 812.091 53.7095 813.099C58.8079 814.107 63.5557 815.564 67.9528 817.471C72.3497 819.478 76.346 821.884 79.9417 824.689C83.5374 827.495 86.5825 830.699 89.077 834.303C92.0705 838.508 94.3134 843.161 95.8056 848.264C97.3976 853.466 98.1885 859.367 98.1784 865.967ZM10.7536 849.483C10.7505 851.483 11.7976 853.385 13.8948 855.188C15.9919 857.091 18.7392 858.845 22.1368 860.451C25.6343 862.056 29.5822 863.462 33.9803 864.669C38.4783 865.976 43.0766 867.083 47.7752 867.99C52.5739 868.897 57.2228 869.604 61.722 870.111C66.3212 870.618 70.5208 870.875 74.3208 870.881C79.4208 870.888 82.9215 870.444 84.8229 869.547C86.8243 868.65 87.8263 867.351 87.8289 865.651C87.8321 863.551 86.7852 861.55 84.6881 859.646C82.691 857.743 79.9937 855.989 76.5962 854.384C73.2986 852.779 69.4509 851.273 65.0531 849.866C60.6551 848.56 56.1568 847.403 51.5584 846.396C46.9598 845.489 42.4108 844.782 37.9116 844.275C33.4124 843.768 29.3128 843.512 25.6128 843.506C20.0128 843.497 16.1119 844.041 13.9103 845.138C11.8086 846.235 10.7564 847.683 10.7536 849.483ZM46.897 951.534C47.3969 951.635 47.8967 951.735 48.3966 951.836C48.8964 951.937 49.4463 951.988 50.0463 951.989C51.8463 951.992 53.4969 951.644 54.9979 950.946C56.5989 950.349 57.4008 949.1 57.4037 947.2C57.4063 945.5 56.6589 943.799 55.1615 942.097C53.7641 940.394 51.8654 939.542 49.4654 939.538C47.8654 939.535 46.5648 939.933 45.5636 940.732C44.6622 941.63 43.9105 942.779 43.3083 944.178C42.7062 945.577 42.2038 947.127 41.8012 948.826C41.3984 950.625 40.9957 952.375 40.5931 954.074C39.9894 956.473 39.236 958.722 38.3328 960.821C37.5294 963.02 36.4264 964.968 35.0238 966.666C33.6212 968.364 31.8691 969.711 29.7676 970.708C27.7661 971.705 25.2653 972.201 22.2653 972.196C18.0653 972.19 14.5168 971.184 11.6199 969.18C8.82283 967.276 6.52698 964.572 4.73235 961.069C3.03757 957.667 1.84379 953.615 1.151 948.914C0.458059 944.313 0.115655 939.362 0.123788 934.062C0.136218 925.962 0.746499 919.263 1.95463 913.965C3.16276 908.667 4.31844 904.969 5.42166 902.87L20.4168 906.043L20.3857 926.293C19.8859 926.192 19.386 926.142 18.886 926.141C18.486 926.14 18.036 926.14 17.536 926.139C15.236 926.135 13.3852 926.632 11.9837 927.63C10.682 928.728 10.0291 930.577 10.0252 933.177C10.0207 936.077 10.8176 938.129 12.4157 939.331C14.1137 940.634 15.6627 941.286 17.0627 941.288C18.4627 941.29 19.6636 940.742 20.6652 939.644C21.7668 938.645 22.6688 937.347 23.3712 935.748C24.1737 934.149 24.8264 932.35 25.3295 930.351C25.9324 928.452 26.4853 926.603 26.988 924.803C27.29 923.504 27.7923 922.005 28.4949 920.306C29.1974 918.707 30.1998 917.158 31.5021 915.66C32.8044 914.162 34.4563 912.915 36.4578 911.918C38.5593 910.921 41.1601 910.425 44.2601 910.43C48.6601 910.437 52.3085 911.492 55.2053 913.597C58.2019 915.801 60.5976 918.605 62.3924 922.008C64.187 925.51 65.481 929.412 66.2744 933.714C67.0676 938.115 67.4609 942.515 67.4541 946.915C67.4457 952.415 66.9377 957.615 65.9302 962.513C64.9227 967.412 63.6166 971.41 62.0118 974.507L46.8671 971.034L46.897 951.534Z" fill="#060E28"/>
</svg>
