<svg width="100" height="989" viewBox="0 0 100 989" fill="none" xmlns="http://www.w3.org/2000/svg">
<path d="M82.5639 2.683C83.4544 8.88438 85.2958 14.4872 88.0881 19.4915C90.8803 24.5958 94.174 28.6509 97.9694 31.6567L97.9342 54.6067L2.71562 34.0605L2.76534 1.66055L72.4925 16.6176L72.5173 0.417585L82.5639 2.683ZM1.43472 86.7777C1.43749 84.9778 1.54094 82.7279 1.74508 80.0282C1.84923 77.3284 2.15352 74.5288 2.65797 71.6296C3.06242 68.7302 3.61679 65.8811 4.32109 63.0821C5.12523 60.3834 6.12891 57.9849 7.33214 55.8868L28.3245 60.869L28.2891 83.969C27.5891 83.9679 26.6891 83.9165 25.5893 83.8148C24.4893 83.8131 23.3393 83.8114 22.1393 83.8095C20.9393 83.8077 19.6892 83.8558 18.3891 83.9538C17.1888 84.1519 16.0884 84.4002 15.0879 84.6987C14.0873 85.0972 13.2365 85.6459 12.5354 86.3448C11.9342 87.1439 11.6326 88.1434 11.6308 89.3434C11.6257 92.6434 14.3707 95.9476 19.8656 99.256C25.4605 102.565 34.5065 105.229 47.0034 107.248L47.0057 105.748C43.8101 102.843 41.3656 99.289 39.672 95.0864C38.0785 90.884 37.2851 86.5328 37.292 82.0328C37.298 78.1328 37.9032 74.7837 39.1075 71.9855C40.4116 69.2875 42.1651 67.0402 44.3678 65.2436C46.5704 63.547 49.1723 62.301 52.1736 61.5056C55.2748 60.7103 58.6254 60.3155 62.2254 60.321C68.8254 60.3311 74.4736 61.4898 79.1701 63.797C83.8664 66.2042 87.7115 69.4101 90.7053 73.4147C93.6992 77.4193 95.8921 82.0727 97.2839 87.3748C98.6756 92.777 99.3669 98.478 99.3577 104.478C99.3492 109.978 98.6916 114.977 97.3847 119.475C96.1776 124.073 94.0715 128.02 91.0665 131.315C88.1614 134.611 84.2575 137.155 79.3548 138.947C74.4519 140.84 68.3504 141.781 61.0504 141.769C53.6504 141.758 46.352 140.697 39.1553 138.586C32.0583 136.575 25.7133 133.315 20.1203 128.806C14.527 124.398 9.98576 118.691 6.49651 111.686C3.1071 104.78 1.41984 96.4777 1.43472 86.7777ZM89.0052 106.112C89.009 103.612 87.9623 101.461 85.8651 99.6573C83.7677 97.9541 81.1699 96.5001 78.0717 95.2954C75.0734 94.1908 71.8247 93.3858 68.3254 92.8804C64.8262 92.375 61.7266 92.1203 59.0266 92.1161C56.6266 92.1125 54.7762 92.3596 53.4755 92.8576C52.2745 93.4558 51.6725 94.7548 51.6695 96.7548C51.6653 99.4548 52.7118 101.756 54.8089 103.66C57.006 105.563 59.6036 107.117 62.6017 108.322C65.5999 109.526 68.6985 110.431 71.8976 111.036C75.1967 111.641 77.9462 111.945 80.1462 111.949C82.7462 111.953 84.8469 111.506 86.4483 110.608C88.1496 109.711 89.0019 108.212 89.0052 106.112ZM1.28461 184.599C1.30334 172.399 3.66745 163.202 8.37696 157.01C13.0863 150.917 19.691 147.877 28.191 147.89C33.991 147.899 39.0886 149.457 43.4838 152.563C47.9789 155.77 51.5205 161.276 54.1085 169.08C55.2134 165.881 57.2177 163.085 60.1214 160.689C63.0251 158.293 66.8769 157.099 71.6769 157.107C76.2769 157.114 80.275 158.32 83.6713 160.725C87.1677 163.13 90.0628 166.285 92.3568 170.188C94.6509 174.092 96.3439 178.595 97.4361 183.696C98.5283 188.798 99.0702 194.049 99.0619 199.449C99.0517 206.149 98.2932 211.648 96.7866 215.945C95.28 220.243 93.3248 223.64 90.921 226.136C88.6171 228.633 86.0145 230.329 83.1132 231.224C80.3118 232.12 77.6111 232.566 75.0111 232.562C71.2111 232.556 67.9622 231.851 65.2643 230.447C62.6663 229.143 60.5188 227.54 58.8217 225.637C57.1246 223.734 55.7777 221.732 54.7809 219.631C53.884 217.629 53.2865 215.979 52.9885 214.678C51.8815 219.276 49.4757 223.023 45.7713 225.917C42.1667 228.912 37.6144 230.405 32.1144 230.396C27.8144 230.389 23.766 229.333 19.9692 227.227C16.2724 225.122 13.0271 222.117 10.233 218.212C7.43903 214.308 5.2464 209.505 3.65515 203.802C2.06374 198.2 1.27357 191.799 1.28461 184.599ZM57.9728 192.336C57.9696 194.436 58.6669 196.187 60.0647 197.589C61.4624 199.091 63.2106 200.294 65.3092 201.197C67.4078 202.1 69.6568 202.754 72.0562 203.157C74.5556 203.561 76.9053 203.765 79.1053 203.768C80.2053 203.77 81.3054 203.722 82.4055 203.623C83.6057 203.525 84.6561 203.277 85.5567 202.878C86.5573 202.48 87.3582 201.881 87.9594 201.082C88.5607 200.283 88.8623 199.183 88.8645 197.783C88.8677 195.683 88.1705 193.882 86.7728 192.38C85.4749 190.978 83.8267 189.825 81.8281 188.922C79.8295 188.019 77.5805 187.316 75.0813 186.812C72.5819 186.408 70.2322 186.205 68.0322 186.201C66.8322 186.199 65.6322 186.247 64.432 186.346C63.3319 186.444 62.2815 186.692 61.2809 187.091C60.2801 187.589 59.4791 188.238 58.8779 189.037C58.2766 189.836 57.975 190.936 57.9728 192.336ZM11.6316 186.565C11.6284 188.665 12.4257 190.416 14.0236 191.818C15.6212 193.321 17.6695 194.474 20.1683 195.278C22.6669 196.182 25.3659 196.786 28.2655 197.09C31.1649 197.495 33.9646 197.699 36.6645 197.703C39.6645 197.708 42.2151 197.362 44.3162 196.665C46.5171 196.068 47.6195 194.47 47.6235 191.87C47.6267 189.77 46.8295 187.969 45.2318 186.466C43.7341 184.964 41.786 183.711 39.3876 182.707C37.0889 181.804 34.49 181.1 31.5908 180.595C28.7914 180.191 26.1417 179.987 23.6417 179.983C20.5417 179.978 17.741 180.424 15.2397 181.32C12.8383 182.216 11.6356 183.965 11.6316 186.565ZM99.0607 298.016C99.0487 305.816 97.9389 312.215 95.7312 317.211C93.5236 322.208 90.1175 326.153 85.5131 329.046C82.41 331.041 78.8576 332.586 74.8559 333.679C70.9542 334.773 66.5034 335.317 61.5034 335.309C57.3034 335.302 53.004 334.896 48.6053 334.089C44.2065 333.282 39.9583 332.126 35.8606 330.62C31.7629 329.113 27.8657 327.307 24.1689 325.202C20.572 323.196 17.4254 320.941 14.7292 318.437C9.73616 313.929 6.19407 308.774 4.10297 302.971C2.11187 297.168 1.12269 290.116 1.13543 281.816C1.14771 273.816 2.05768 267.318 3.86535 262.32C5.67287 257.423 8.57885 253.528 12.5833 250.634C15.487 248.238 19.1397 246.444 23.5416 245.251C28.0433 244.157 33.2441 243.615 39.1441 243.624C44.4441 243.633 49.5933 244.141 54.5918 245.148C59.6902 246.156 64.438 247.613 68.8351 249.52C73.232 251.527 77.2283 253.933 80.824 256.738C84.4197 259.544 87.4648 262.749 89.9593 266.352C92.9528 270.557 95.1957 275.211 96.6878 280.313C98.2799 285.515 99.0708 291.416 99.0607 298.016ZM11.6359 281.532C11.6328 283.532 12.6799 285.434 14.7771 287.237C16.8742 289.14 19.6215 290.895 23.0191 292.5C26.5166 294.105 30.4644 295.511 34.8626 296.718C39.3606 298.025 43.9589 299.132 48.6575 300.039C53.4561 300.946 58.1051 301.654 62.6043 302.161C67.2035 302.668 71.4031 302.924 75.2031 302.93C80.3031 302.938 83.8038 302.493 85.7052 301.596C87.7066 300.699 88.7086 299.401 88.7112 297.701C88.7144 295.601 87.6675 293.599 85.5704 291.696C83.5733 289.793 80.876 288.039 77.4784 286.433C74.1809 284.828 70.3332 283.322 65.9354 281.916C61.5374 280.609 57.0391 279.452 52.4407 278.445C47.8421 277.538 43.2931 276.831 38.7939 276.324C34.2947 275.817 30.1951 275.561 26.4951 275.555C20.8951 275.547 16.9942 276.091 14.7925 277.187C12.6909 278.284 11.6386 279.732 11.6359 281.532ZM47.7793 383.583C48.2792 383.684 48.779 383.785 49.2789 383.885C49.7787 383.986 50.3286 384.037 50.9286 384.038C52.7286 384.041 54.3792 383.693 55.8802 382.996C57.4811 382.398 58.2831 381.149 58.286 379.249C58.2886 377.549 57.5412 375.848 56.0438 374.146C54.6464 372.444 52.7477 371.591 50.3477 371.587C48.7477 371.585 47.4471 371.983 46.4459 372.781C45.5445 373.68 44.7928 374.829 44.1906 376.228C43.5885 377.627 43.0861 379.176 42.6835 380.875C42.2807 382.675 41.878 384.424 41.4754 386.124C40.8717 388.523 40.1183 390.771 39.2151 392.87C38.4117 395.069 37.3087 397.017 35.9061 398.715C34.5035 400.413 32.7514 401.76 30.6499 402.757C28.6483 403.754 26.1476 404.25 23.1476 404.245C18.9476 404.239 15.3991 403.234 12.5022 401.229C9.70512 399.325 7.40926 396.621 5.61464 393.119C3.91986 389.716 2.72607 385.664 2.03329 380.963C1.34035 376.362 0.997942 371.411 1.00608 366.111C1.0185 358.011 1.62879 351.312 2.83692 346.014C4.04505 340.716 5.20073 337.018 6.30395 334.919L21.2991 338.093L21.268 358.342C20.7682 358.242 20.2683 358.191 19.7683 358.19C19.3683 358.19 18.9183 358.189 18.4183 358.188C16.1183 358.185 14.2675 358.682 12.866 359.68C11.5643 360.778 10.9114 362.627 10.9074 365.227C10.903 368.127 11.6998 370.178 13.298 371.38C14.996 372.683 16.545 373.335 17.945 373.337C19.345 373.34 20.5458 372.791 21.5475 371.693C22.6491 370.695 23.5511 369.396 24.2535 367.797C25.056 366.198 25.7087 364.399 26.2118 362.4C26.8147 360.501 27.3676 358.652 27.8703 356.853C28.1723 355.553 28.6746 354.054 29.3772 352.355C30.0797 350.756 31.0821 349.208 32.3844 347.71C33.6867 346.212 35.3386 344.964 37.3401 343.967C39.4416 342.97 42.0424 342.474 45.1424 342.479C49.5424 342.486 53.1908 343.541 56.0875 345.646C59.0842 347.851 61.4799 350.654 63.2746 354.057C65.0693 357.56 66.3633 361.462 67.1567 365.763C67.9499 370.164 68.3432 374.565 68.3364 378.965C68.328 384.465 67.82 389.664 66.8125 394.562C65.805 399.461 64.4988 403.459 62.8941 406.556L47.7494 403.083L47.7793 383.583ZM2.00128 499.57L10.2568 495.982L10.2582 495.082C9.45925 494.381 8.51079 493.38 7.41278 492.078C6.31478 490.776 5.26739 489.075 4.27061 486.973C3.27384 484.872 2.47767 482.37 1.88212 479.47C1.18642 476.668 0.841408 473.418 0.847086 469.718C0.853224 465.718 1.35913 461.869 2.36481 458.17C3.37033 454.572 4.92524 451.374 7.02953 448.577C9.13383 445.781 11.8373 443.535 15.1399 441.84C18.4425 440.145 22.4438 439.301 27.1438 439.308C30.9438 439.314 34.5429 439.92 37.941 441.125C41.339 442.43 44.436 444.385 47.232 446.989C50.028 449.593 52.473 452.897 54.5668 456.9C56.6607 460.904 58.3033 465.706 59.4947 471.308C62.3967 470.012 64.7482 469.066 66.5491 468.469C68.35 467.871 70.4005 467.575 72.7005 467.578C76.7005 467.584 80.2992 468.39 83.4968 469.995C86.6943 471.6 89.3908 473.854 91.5864 476.757C93.8819 479.661 95.6266 483.113 96.8205 487.115C98.1142 491.217 98.7574 495.668 98.75 500.468C98.7379 508.368 97.0281 514.766 93.6206 519.66C90.3129 524.655 85.3591 527.148 78.7591 527.138C75.2591 527.132 72.4101 526.428 70.2123 525.024C68.0143 523.721 66.2168 522.118 64.8197 520.216C63.4226 518.314 62.3257 516.262 61.5291 514.061C60.7323 511.96 59.9851 510.159 59.2874 508.658L44.8764 515.836C49.0718 518.842 53.0184 521.048 56.7162 522.454L56.6999 533.104C53.1014 532.098 49.6037 530.643 46.2066 528.738C42.9093 526.933 39.6123 524.977 36.3156 522.872L34.0679 521.369L1.94166 538.42L2.00128 499.57ZM51.2381 475.645C50.2407 473.944 48.2429 472.491 45.2447 471.286C42.2464 470.181 39.1973 469.627 36.0973 469.622C33.7973 469.618 31.5467 469.965 29.3457 470.662C27.1446 471.358 25.1931 472.355 23.4911 473.653C21.7889 475.05 20.3864 476.698 19.2835 478.596C18.2806 480.495 17.7773 482.644 17.7736 485.044C17.7711 486.644 17.9693 487.844 18.3681 488.645C18.7668 489.445 19.3157 490.196 20.0146 490.897L51.2381 475.645ZM90.4968 502.556C90.5005 500.156 89.9532 498.405 88.8549 497.303C87.8564 496.301 86.6572 495.8 85.2572 495.797C83.5572 495.795 81.5062 496.442 79.1042 497.738L67.5448 503.87C68.3398 507.072 69.8862 509.474 72.1837 511.077C74.4812 512.681 76.93 513.485 79.53 513.489C82.33 513.493 84.8315 512.547 87.0344 510.65C89.3371 508.854 90.4913 506.156 90.4968 502.556ZM81.6708 584.665C82.5613 590.866 84.4027 596.469 87.195 601.473C89.9872 606.578 93.281 610.633 97.0764 613.638L97.0411 636.588L1.82255 616.042L1.87227 583.642L71.5994 598.599L71.6243 582.399L81.6708 584.665ZM0.541648 668.759C0.54441 666.959 0.647863 664.71 0.852006 662.01C0.956149 659.31 1.26045 656.511 1.7649 653.611C2.16934 650.712 2.72372 647.863 3.42801 645.064C4.23216 642.365 5.23584 639.967 6.43906 637.868L27.4314 642.851L27.396 665.951C26.696 665.95 25.7961 665.898 24.6962 665.797C23.5962 665.795 22.4462 665.793 21.2462 665.791C20.0462 665.789 18.7962 665.837 17.496 665.935C16.2957 666.134 15.1953 666.382 14.1949 666.68C13.1942 667.079 12.3434 667.628 11.6423 668.327C11.0411 669.126 10.7396 670.125 10.7377 671.325C10.7327 674.625 13.4776 677.929 18.9725 681.238C24.5675 684.546 33.6134 687.21 46.1103 689.229L46.1126 687.729C42.917 684.825 40.4725 681.271 38.7789 677.068C37.1854 672.866 36.3921 668.514 36.399 664.014C36.405 660.114 37.0101 656.765 38.2144 653.967C39.5185 651.269 41.272 649.022 43.4747 647.225C45.6774 645.529 48.2793 644.283 51.2805 643.487C54.3817 642.692 57.7323 642.297 61.3323 642.303C67.9323 642.313 73.5805 643.472 78.277 645.779C82.9733 648.186 86.8184 651.392 89.8123 655.396C92.8061 659.401 94.999 664.054 96.3908 669.357C97.7826 674.759 98.4738 680.46 98.4646 686.46C98.4562 691.96 97.7985 696.959 96.4916 701.457C95.2845 706.055 93.1785 710.002 90.1734 713.297C87.2684 716.593 83.3644 719.137 78.4617 720.929C73.5588 722.822 67.4573 723.762 60.1573 723.751C52.7573 723.74 45.459 722.678 38.2622 720.567C31.1653 718.557 24.8203 715.297 19.2272 710.788C13.6339 706.38 9.09269 700.673 5.60343 693.667C2.21402 686.762 0.526763 678.459 0.541648 668.759ZM88.1121 688.094C88.1159 685.594 87.0692 683.442 84.972 681.639C82.8746 679.936 80.2768 678.482 77.1787 677.277C74.1804 676.172 70.9316 675.368 67.4324 674.862C63.9331 674.357 60.8335 674.102 58.1335 674.098C55.7335 674.094 53.8831 674.341 52.5824 674.839C51.3815 675.437 50.7795 676.737 50.7764 678.737C50.7723 681.437 51.8187 683.738 53.9158 685.641C56.1129 687.545 58.7105 689.099 61.7087 690.303C64.7068 691.508 67.8054 692.413 71.0045 693.018C74.3036 693.623 77.0531 693.927 79.2531 693.93C81.8531 693.934 83.9538 693.488 85.5552 692.59C87.2566 691.693 88.1089 690.194 88.1121 688.094ZM0.399134 761.63C0.401896 759.83 0.505348 757.581 0.709491 754.881C0.813635 752.181 1.11793 749.382 1.62238 746.482C2.02683 743.583 2.5812 740.734 3.2855 737.935C4.08964 735.236 5.09332 732.838 6.29654 730.739L27.2889 735.722L27.2535 758.822C26.5535 758.821 25.6536 758.769 24.5537 758.668C23.4537 758.666 22.3037 758.664 21.1037 758.662C19.9037 758.66 18.6536 758.708 17.3535 758.806C16.1532 759.005 15.0528 759.253 14.0523 759.551C13.0517 759.95 12.2009 760.499 11.4998 761.197C10.8986 761.997 10.5971 762.996 10.5952 764.196C10.5901 767.496 13.3351 770.8 18.83 774.109C24.4249 777.417 33.4709 780.081 45.9678 782.1L45.9701 780.6C42.7745 777.696 40.33 774.142 38.6364 769.939C37.0429 765.737 36.2496 761.385 36.2565 756.885C36.2624 752.985 36.8676 749.636 38.0719 746.838C39.376 744.14 41.1295 741.893 43.3322 740.096C45.5348 738.4 48.1368 737.154 51.138 736.358C54.2392 735.563 57.5898 735.168 61.1898 735.174C67.7898 735.184 73.438 736.343 78.1345 738.65C82.8308 741.057 86.6759 744.263 89.6697 748.267C92.6636 752.272 94.8565 756.925 96.2483 762.228C97.64 767.63 98.3313 773.331 98.3221 779.331C98.3137 784.831 97.656 789.83 96.3491 794.328C95.142 798.926 93.036 802.873 90.0309 806.168C87.1258 809.464 83.2219 812.008 78.3192 813.8C73.4163 815.693 67.3148 816.633 60.0148 816.622C52.6148 816.611 45.3164 815.549 38.1197 813.438C31.0228 811.428 24.6777 808.168 19.0847 803.659C13.4914 799.251 8.95017 793.544 5.46092 786.538C2.07151 779.633 0.384249 771.33 0.399134 761.63ZM87.9696 780.965C87.9734 778.465 86.9267 776.313 84.8295 774.51C82.7321 772.807 80.1343 771.353 77.0362 770.148C74.0378 769.043 70.7891 768.238 67.2899 767.733C63.7906 767.228 60.691 766.973 57.991 766.969C55.591 766.965 53.7406 767.212 52.4399 767.71C51.2389 768.308 50.637 769.608 50.6339 771.608C50.6297 774.308 51.6762 776.609 53.7733 778.512C55.9704 780.416 58.568 781.97 61.5661 783.174C64.5643 784.379 67.6629 785.284 70.862 785.889C74.1611 786.494 76.9106 786.798 79.1106 786.801C81.7106 786.805 83.8113 786.358 85.4127 785.461C87.114 784.564 87.9663 783.065 87.9696 780.965ZM98.1678 879.852C98.1559 887.652 97.046 894.05 94.8384 899.047C92.6307 904.043 89.2246 907.988 84.6202 910.881C81.5171 912.876 77.9648 914.421 73.9631 915.515C70.0614 916.609 65.6106 917.152 60.6106 917.144C56.4106 917.138 52.1112 916.731 47.7124 915.924C43.3137 915.118 39.0654 913.961 34.9677 912.455C30.87 910.948 26.9728 909.143 23.276 907.037C19.6791 905.031 16.5326 902.776 13.8364 900.272C8.84331 895.765 5.30122 890.609 3.21012 884.806C1.21902 879.003 0.229841 871.951 0.242578 863.651C0.254854 855.651 1.16483 849.153 2.9725 844.156C4.78002 839.258 7.686 835.363 11.6904 832.469C14.5941 830.073 18.2469 828.279 22.6487 827.086C27.1504 825.993 32.3512 825.451 38.2512 825.46C43.5512 825.468 48.7005 825.976 53.6989 826.983C58.7974 827.991 63.5451 829.449 67.9422 831.355C72.3391 833.362 76.3355 835.768 79.9312 838.574C83.5269 841.379 86.5719 844.584 89.0664 848.188C92.06 852.392 94.3028 857.046 95.795 862.148C97.387 867.351 98.178 873.252 98.1678 879.852ZM10.743 863.368C10.74 865.368 11.787 867.269 13.8843 869.072C15.9814 870.976 18.7287 872.73 22.1262 874.335C25.6238 875.94 29.5716 877.346 33.9698 878.553C38.4678 879.86 43.0661 880.967 47.7647 881.874C52.5633 882.782 57.2122 883.489 61.7114 883.996C66.3107 884.503 70.5103 884.759 74.3103 884.765C79.4103 884.773 82.9109 884.328 84.8123 883.431C86.8137 882.534 87.8157 881.236 87.8183 879.536C87.8215 877.436 86.7746 875.434 84.6775 873.531C82.6804 871.628 79.9831 869.874 76.5856 868.269C73.288 866.664 69.4404 865.158 65.0425 863.751C60.6445 862.444 56.1463 861.287 51.5478 860.28C46.9492 859.373 42.4003 858.666 37.9011 858.159C33.4018 857.652 29.3022 857.396 25.6022 857.39C20.0022 857.382 16.1014 857.926 13.8997 859.022C11.798 860.119 10.7458 861.568 10.743 863.368ZM46.8865 965.418C47.3863 965.519 47.8862 965.62 48.386 965.721C48.8859 965.822 49.4358 965.872 50.0358 965.873C51.8358 965.876 53.4863 965.529 54.9874 964.831C56.5883 964.233 57.3902 962.985 57.3931 961.085C57.3957 959.385 56.6484 957.683 55.151 955.981C53.7536 954.279 51.8549 953.426 49.4549 953.422C47.8549 953.42 46.5543 953.818 45.553 954.616C44.6517 955.515 43.8999 956.664 43.2977 958.063C42.6956 959.462 42.1932 961.011 41.7906 962.711C41.3879 964.51 40.9852 966.259 40.5826 967.959C39.9789 970.358 39.2254 972.607 38.3222 974.705C37.5188 976.904 36.4158 978.852 35.0132 980.55C33.6106 982.248 31.8586 983.595 29.757 984.592C27.7555 985.589 25.2547 986.085 22.2547 986.081C18.0547 986.074 14.5063 985.069 11.6093 983.064C8.81227 981.16 6.51641 978.457 4.72179 974.954C3.027 971.551 1.83322 967.499 1.14043 962.798C0.447494 958.197 0.10509 953.247 0.113223 947.947C0.125653 939.847 0.735934 933.148 1.94407 927.849C3.1522 922.551 4.30787 918.853 5.41109 916.755L20.4062 919.928L20.3752 940.178C19.8753 940.077 19.3754 940.026 18.8754 940.025C18.4754 940.025 18.0254 940.024 17.5254 940.023C15.2254 940.02 13.3746 940.517 11.9731 941.515C10.6714 942.613 10.0186 944.462 10.0146 947.062C10.0101 949.962 10.807 952.013 12.4052 953.216C14.1032 954.518 15.6522 955.17 17.0522 955.173C18.4522 955.175 19.653 954.627 20.6547 953.528C21.7562 952.53 22.6582 951.231 23.3607 949.632C24.1631 948.034 24.8159 946.235 25.3189 944.235C25.9219 942.336 26.4747 940.487 26.9775 938.688C27.2795 937.388 27.7818 935.889 28.4844 934.19C29.1868 932.591 30.1892 931.043 31.4915 929.545C32.7938 928.047 34.4457 926.799 36.4472 925.802C38.5488 924.806 41.1495 924.31 44.2495 924.314C48.6495 924.321 52.2979 925.377 55.1947 927.481C58.1913 929.686 60.587 932.489 62.3818 935.892C64.1764 939.395 65.4704 943.297 66.2638 947.598C67.0571 951.999 67.4503 956.4 67.4436 960.8C67.4351 966.3 66.9272 971.499 65.9196 976.398C64.9121 981.296 63.606 985.294 62.0012 988.392L46.8565 984.918L46.8865 965.418Z" fill="#060E28"/>
</svg>
