<svg width="100" height="827" viewBox="0 0 100 827" fill="none" xmlns="http://www.w3.org/2000/svg">
<path d="M17.3435 4.05879C19.5329 10.9622 22.2726 17.6664 25.5627 24.1714C28.9527 30.6766 32.9938 36.4828 37.686 41.5901C42.4781 46.6974 48.0219 50.7559 54.3173 53.7656C60.6125 56.8753 67.8601 58.4364 76.0601 58.449C80.0601 58.4551 83.1607 58.0599 85.362 57.2632C87.5632 56.4666 88.6653 55.0683 88.6684 53.0683C88.6712 51.2683 87.8238 49.567 86.1262 47.9644C84.4285 46.4618 82.2807 45.0585 79.6827 43.7545C77.0845 42.5505 74.1863 41.3961 70.988 40.2912C67.7895 39.2862 64.6908 38.4315 61.6919 37.7269L61.7336 10.5769L84.226 15.5614C89.0173 21.1688 92.7083 27.0745 95.2988 33.2785C97.9893 39.4826 99.3285 46.4847 99.3165 54.2846C99.3092 59.0846 98.7523 63.5838 97.6458 67.7821C96.5392 72.0804 94.7836 75.7777 92.3788 78.874C90.0739 82.0705 87.1201 84.566 83.5173 86.3604C80.0144 88.2551 75.8129 89.1986 70.9129 89.1911C67.213 89.1854 63.564 88.5298 59.966 87.2243C56.3678 86.0188 52.6212 83.813 48.7261 80.607C44.9309 77.5012 40.9374 73.2451 36.7457 67.8386C32.6538 62.5324 28.2142 55.7755 23.4268 47.5682L23.3754 81.0181L2.53006 77.9862L2.6486 0.736239L17.3435 4.05879ZM99.1684 150.851C99.1564 158.651 98.0466 165.049 95.8389 170.045C93.6312 175.042 90.2252 178.987 85.6207 181.88C82.5177 183.875 78.9653 185.42 74.9636 186.513C71.0619 187.607 66.6111 188.151 61.6111 188.143C57.4111 188.137 53.1117 187.73 48.7129 186.923C44.3142 186.116 40.0659 184.96 35.9683 183.454C31.8706 181.947 27.9733 180.141 24.2766 178.036C20.6796 176.03 17.5331 173.775 14.8369 171.271C9.84383 166.763 6.30174 161.608 4.21064 155.805C2.21955 150.002 1.23037 142.95 1.2431 134.65C1.25538 126.65 2.16535 120.152 3.97302 115.154C5.78054 110.257 8.68652 106.362 12.691 103.468C15.5946 101.072 19.2474 99.2778 23.6492 98.0846C28.1509 96.9915 33.3518 96.4495 39.2518 96.4585C44.5517 96.4667 49.701 96.9746 54.6994 97.9822C59.7979 98.9901 64.5457 100.447 68.9427 102.354C73.3397 104.361 77.336 106.767 80.9317 109.573C84.5274 112.378 87.5725 115.583 90.0669 119.187C93.0605 123.391 95.3034 128.045 96.7955 133.147C98.3875 138.349 99.1785 144.251 99.1684 150.851ZM11.7436 134.366C11.7405 136.366 12.7876 138.268 14.8848 140.071C16.9819 141.974 19.7292 143.729 23.1267 145.334C26.6243 146.939 30.5721 148.345 34.9703 149.552C39.4683 150.859 44.0666 151.966 48.7652 152.873C53.5638 153.781 58.2127 154.488 62.712 154.995C67.3112 155.502 71.5108 155.758 75.3108 155.764C80.4108 155.772 83.9115 155.327 85.8129 154.43C87.8142 153.533 88.8162 152.235 88.8188 150.535C88.8221 148.435 87.7751 146.433 85.678 144.53C83.681 142.627 80.9837 140.873 77.5861 139.267C74.2886 137.662 70.4409 136.156 66.043 134.75C61.645 133.443 57.1468 132.286 52.5483 131.279C47.9497 130.372 43.4008 129.665 38.9016 129.158C34.4023 128.651 30.3027 128.395 26.6027 128.389C21.0027 128.381 17.1019 128.925 14.9002 130.021C12.7985 131.118 11.7463 132.566 11.7436 134.366ZM99.0146 251.046C99.0026 258.846 97.8928 265.244 95.6851 270.241C93.4775 275.237 90.0714 279.182 85.467 282.075C82.3639 284.07 78.8115 285.615 74.8099 286.709C70.9082 287.803 66.4573 288.346 61.4573 288.338C57.2573 288.332 52.958 287.925 48.5592 287.118C44.1604 286.312 39.9122 285.155 35.8145 283.649C31.7168 282.143 27.8196 280.337 24.1228 278.231C20.5259 276.225 17.3793 273.97 14.6832 271.466C9.69008 266.959 6.14799 261.803 4.05689 256C2.06579 250.197 1.07661 243.145 1.08935 234.845C1.10162 226.845 2.0116 220.347 3.81927 215.35C5.62679 210.452 8.53277 206.557 12.5372 203.663C15.4409 201.267 19.0937 199.473 23.4955 198.28C27.9972 197.187 33.198 196.645 39.098 196.654C44.398 196.662 49.5472 197.17 54.5457 198.177C59.6441 199.185 64.3919 200.643 68.789 202.549C73.1859 204.556 77.1822 206.962 80.7779 209.768C84.3736 212.573 87.4187 215.778 89.9132 219.382C92.9067 223.586 95.1496 228.24 96.6418 233.342C98.2338 238.545 99.0247 244.446 99.0146 251.046ZM11.5898 234.562C11.5867 236.562 12.6338 238.463 14.731 240.266C16.8281 242.17 19.5754 243.924 22.973 245.529C26.4705 247.134 30.4184 248.54 34.8165 249.747C39.3145 251.054 43.9128 252.161 48.6114 253.068C53.4101 253.976 58.059 254.683 62.5582 255.19C67.1574 255.697 71.357 255.953 75.157 255.959C80.257 255.967 83.7577 255.522 85.6591 254.625C87.6605 253.728 88.6625 252.43 88.6651 250.73C88.6683 248.63 87.6214 246.628 85.5243 244.725C83.5272 242.822 80.8299 241.068 77.4324 239.463C74.1348 237.858 70.2871 236.352 65.8893 234.945C61.4913 233.638 56.993 232.481 52.3946 231.474C47.796 230.567 43.2471 229.86 38.7478 229.353C34.2486 228.846 30.149 228.59 26.449 228.584C20.849 228.576 16.9482 229.12 14.7465 230.216C12.6448 231.313 11.5926 232.762 11.5898 234.562ZM98.8609 351.241C98.8489 359.041 97.7391 365.439 95.5314 370.436C93.3237 375.432 89.9177 379.377 85.3132 382.27C82.2102 384.265 78.6578 385.81 74.6561 386.904C70.7544 387.998 66.3036 388.541 61.3036 388.533C57.1036 388.527 52.8042 388.12 48.4054 387.314C44.0067 386.507 39.7584 385.35 35.6607 383.844C31.5631 382.338 27.6658 380.532 23.969 378.426C20.3721 376.421 17.2256 374.166 14.5294 371.662C9.53633 367.154 5.99423 361.998 3.90314 356.195C1.91204 350.392 0.922858 343.341 0.935595 335.041C0.947871 327.041 1.85784 320.542 3.66552 315.545C5.47303 310.648 8.37901 306.752 12.3835 303.858C15.2871 301.463 18.9399 299.668 23.3417 298.475C27.8434 297.382 33.0443 296.84 38.9442 296.849C44.2442 296.857 49.3935 297.365 54.3919 298.373C59.4904 299.38 64.2382 300.838 68.6352 302.744C73.0322 304.751 77.0285 307.157 80.6242 309.963C84.2199 312.768 87.265 315.973 89.7594 319.577C92.753 323.782 94.9958 328.435 96.488 333.537C98.08 338.74 98.871 344.641 98.8609 351.241ZM11.436 334.757C11.433 336.757 12.4801 338.658 14.5773 340.462C16.6744 342.365 19.4217 344.119 22.8192 345.724C26.3168 347.33 30.2646 348.736 34.6628 349.942C39.1608 351.249 43.7591 352.356 48.4577 353.264C53.2563 354.171 57.9052 354.878 62.4044 355.385C67.0037 355.892 71.2033 356.148 75.0033 356.154C80.1033 356.162 83.604 355.718 85.5053 354.82C87.5067 353.924 88.5087 352.625 88.5113 350.925C88.5145 348.825 87.4676 346.823 85.3705 344.92C83.3735 343.017 80.6761 341.263 77.2786 339.658C73.9811 338.053 70.1334 336.547 65.7355 335.14C61.3375 333.833 56.8393 332.676 52.2408 331.669C47.6422 330.762 43.0933 330.055 38.5941 329.548C34.0948 329.042 29.9952 328.785 26.2952 328.78C20.6952 328.771 16.7944 329.315 14.5927 330.412C12.491 331.508 11.4388 332.957 11.436 334.757ZM40.3946 426.958L40.3221 474.207L26.6767 471.187L26.7494 423.787L40.3946 426.958ZM16.6087 482.916C18.7981 489.819 21.5378 496.523 24.8278 503.028C28.2179 509.533 32.259 515.34 36.9511 520.447C41.7433 525.554 47.2871 529.613 53.5825 532.622C59.8777 535.732 67.1253 537.293 75.3253 537.306C79.3253 537.312 82.4259 536.917 84.6271 536.12C86.8284 535.323 87.9305 533.925 87.9336 531.925C87.9363 530.125 87.0889 528.424 85.3914 526.821C83.6937 525.319 81.5459 523.915 78.9478 522.611C76.3497 521.407 73.4515 520.253 70.2532 519.148C67.0547 518.143 63.956 517.288 60.9571 516.584L60.9987 489.434L83.4911 494.418C88.2825 500.026 91.9735 505.931 94.5639 512.135C97.2544 518.339 98.5937 525.342 98.5817 533.141C98.5744 537.941 98.0174 542.441 96.911 546.639C95.8044 550.937 94.0487 554.635 91.644 557.731C89.3391 560.927 86.3852 563.423 82.7825 565.217C79.2796 567.112 75.0781 568.055 70.1781 568.048C66.4781 568.042 62.8291 567.387 59.2311 566.081C55.633 564.876 51.8863 562.67 47.9913 559.464C44.196 556.358 40.2026 552.102 36.0108 546.695C31.919 541.389 27.4793 534.632 22.6919 526.425L22.6406 559.875L1.79523 556.843L1.91377 479.593L16.6087 482.916ZM98.4335 629.707C98.4216 637.507 97.3117 643.906 95.1041 648.902C92.8964 653.899 89.4903 657.844 84.8859 660.737C81.7828 662.732 78.2305 664.276 74.2288 665.37C70.3271 666.464 65.8763 667.007 60.8763 667C56.6763 666.993 52.3769 666.587 47.9781 665.78C43.5794 664.973 39.3311 663.817 35.2334 662.31C31.1357 660.804 27.2385 658.998 23.5417 656.893C19.9448 654.887 16.7983 652.632 14.1021 650.128C9.10901 645.62 5.56691 640.465 3.47582 634.662C1.48472 628.859 0.495539 621.807 0.508276 613.507C0.520552 605.507 1.43053 599.009 3.2382 594.011C5.04571 589.114 7.95169 585.218 11.9561 582.325C14.8598 579.929 18.5126 578.135 22.9144 576.941C27.4161 575.848 32.6169 575.306 38.5169 575.315C43.8169 575.324 48.9661 575.831 53.9646 576.839C59.0631 577.847 63.8108 579.304 68.2079 581.211C72.6048 583.218 76.6012 585.624 80.1969 588.429C83.7926 591.235 86.8376 594.44 89.3321 598.043C92.3257 602.248 94.5685 606.901 96.0607 612.004C97.6527 617.206 98.4437 623.107 98.4335 629.707ZM11.0087 613.223C11.0057 615.223 12.0527 617.125 14.15 618.928C16.2471 620.831 18.9944 622.585 22.3919 624.191C25.8894 625.796 29.8373 627.202 34.2354 628.409C38.7334 629.716 43.3318 630.823 48.0304 631.73C52.829 632.637 57.4779 633.345 61.9771 633.851C66.5764 634.359 70.776 634.615 74.576 634.621C79.676 634.629 83.1766 634.184 85.078 633.287C87.0794 632.39 88.0814 631.092 88.084 629.392C88.0872 627.292 87.0403 625.29 84.9432 623.387C82.9461 621.484 80.2488 619.729 76.8513 618.124C73.5537 616.519 69.706 615.013 65.3082 613.607C60.9102 612.3 56.412 611.143 51.8135 610.136C47.2149 609.229 42.666 608.522 38.1667 608.015C33.6675 607.508 29.5679 607.252 25.8679 607.246C20.2679 607.237 16.3671 607.781 14.1654 608.878C12.0637 609.975 11.0115 611.423 11.0087 613.223ZM81.4062 680.077C82.2967 686.278 84.1381 691.881 86.9304 696.885C89.7226 701.989 93.0164 706.044 96.8118 709.05L96.7766 732L1.55797 711.454L1.60769 679.054L71.3348 694.011L71.3597 677.811L81.4062 680.077ZM98.1883 789.522C98.1763 797.322 97.0665 803.72 94.8588 808.717C92.6512 813.713 89.2451 817.658 84.6407 820.551C81.5376 822.546 77.9852 824.091 73.9835 825.185C70.0819 826.279 65.631 826.822 60.631 826.814C56.431 826.808 52.1316 826.401 47.7329 825.594C43.3341 824.788 39.0859 823.631 34.9882 822.125C30.8905 820.618 26.9933 818.812 23.2965 816.707C19.6996 814.701 16.553 812.446 13.8569 809.942C8.86376 805.435 5.32167 800.279 3.23057 794.476C1.23948 788.673 0.250297 781.621 0.263033 773.321C0.27531 765.321 1.18528 758.823 2.99295 753.826C4.80047 748.928 7.70645 745.033 11.7109 742.139C14.6146 739.743 18.2673 737.949 22.6692 736.756C27.1709 735.663 32.3717 735.121 38.2717 735.13C43.5717 735.138 48.7209 735.646 53.7194 736.653C58.8178 737.661 63.5656 739.118 67.9627 741.025C72.3596 743.032 76.3559 745.438 79.9516 748.244C83.5473 751.049 86.5924 754.254 89.0869 757.858C92.0804 762.062 94.3233 766.716 95.8155 771.818C97.4075 777.02 98.1984 782.922 98.1883 789.522ZM10.7635 773.037C10.7604 775.037 11.8075 776.939 13.9047 778.742C16.0018 780.646 18.7491 782.4 22.1467 784.005C25.6442 785.61 29.5921 787.016 33.9902 788.223C38.4882 789.53 43.0865 790.637 47.7851 791.544C52.5837 792.452 57.2327 793.159 61.7319 793.666C66.3311 794.173 70.5307 794.429 74.3307 794.435C79.4307 794.443 82.9314 793.998 84.8328 793.101C86.8342 792.204 87.8362 790.906 87.8388 789.206C87.842 787.106 86.7951 785.104 84.698 783.201C82.7009 781.298 80.0036 779.544 76.606 777.939C73.3085 776.333 69.4608 774.828 65.063 773.421C60.665 772.114 56.1667 770.957 51.5683 769.95C46.9697 769.043 42.4207 768.336 37.9215 767.829C33.4223 767.322 29.3227 767.066 25.6227 767.06C20.0227 767.052 16.1218 767.596 13.9202 768.692C11.8185 769.789 10.7662 771.237 10.7635 773.037Z" fill="#060E28"/>
</svg>
