<svg width="100" height="976" viewBox="0 0 100 976" fill="none" xmlns="http://www.w3.org/2000/svg">
<path d="M17.4549 3.47587C19.6443 10.3792 22.384 17.0835 25.674 23.5885C29.0641 30.0937 33.1052 35.8999 37.7973 41.0071C42.5895 46.1145 48.1333 50.173 54.4287 53.1827C60.7239 56.2923 67.9715 57.8535 76.1715 57.866C80.1715 57.8722 83.2721 57.4769 85.4733 56.6803C87.6746 55.8837 88.7767 54.4854 88.7798 52.4854C88.7825 50.6854 87.9352 48.9841 86.2376 47.3815C84.5399 45.8789 82.3921 44.4756 79.7941 43.1716C77.1959 41.9676 74.2977 40.8131 71.0994 39.7082C67.9009 38.7033 64.8022 37.8486 61.8033 37.144L61.845 9.994L84.3373 14.9785C89.1287 20.5859 92.8197 26.4916 95.4102 32.6955C98.1006 38.8997 99.4399 45.9017 99.4279 53.7017C99.4206 58.5017 98.8637 63.0009 97.7572 67.1992C96.6506 71.4975 94.8949 75.1948 92.4902 78.2911C90.1853 81.4876 87.2314 83.983 83.6287 85.7775C80.1258 87.6721 75.9243 88.6157 71.0243 88.6082C67.3243 88.6025 63.6753 87.9469 60.0773 86.6414C56.4792 85.4359 52.7326 83.2301 48.8375 80.0241C45.0422 76.9183 41.0488 72.6622 36.8571 67.2557C32.7652 61.9494 28.3256 55.1926 23.5381 46.9853L23.4868 80.4352L2.64144 77.4032L2.75998 0.153318L17.4549 3.47587ZM99.2797 150.268C99.2678 158.068 98.158 164.466 95.9503 169.463C93.7426 174.459 90.3366 178.404 85.7321 181.297C82.629 183.292 79.0767 184.837 75.075 185.931C71.1733 187.025 66.7225 187.568 61.7225 187.56C57.5225 187.554 53.2231 187.147 48.8243 186.34C44.4256 185.533 40.1773 184.377 36.0796 182.871C31.9819 181.364 28.0847 179.558 24.3879 177.453C20.791 175.447 17.6445 173.192 14.9483 170.688C9.95522 166.181 6.41312 161.025 4.32203 155.222C2.33093 149.419 1.34175 142.367 1.35448 134.067C1.36676 126.067 2.27673 119.569 4.0844 114.572C5.89192 109.674 8.7979 105.779 12.8023 102.885C15.706 100.489 19.3588 98.6949 23.7606 97.5017C28.2623 96.4086 33.4631 95.8666 39.3631 95.8756C44.6631 95.8837 49.8124 96.3916 54.8108 97.3993C59.9093 98.4071 64.657 99.8644 69.0541 101.771C73.4511 103.778 77.4474 106.184 81.0431 108.99C84.6388 111.795 87.6838 115 90.1783 118.604C93.1719 122.808 95.4147 127.462 96.9069 132.564C98.4989 137.766 99.2899 143.668 99.2797 150.268ZM11.8549 133.783C11.8519 135.783 12.8989 137.685 14.9962 139.488C17.0933 141.391 19.8406 143.146 23.2381 144.751C26.7357 146.356 30.6835 147.762 35.0817 148.969C39.5797 150.276 44.178 151.383 48.8766 152.29C53.6752 153.198 58.3241 153.905 62.8233 154.412C67.4226 154.919 71.6222 155.175 75.4222 155.181C80.5222 155.189 84.0229 154.744 85.9242 153.847C87.9256 152.95 88.9276 151.652 88.9302 149.952C88.9334 147.852 87.8865 145.85 85.7894 143.947C83.7923 142.044 81.095 140.29 77.6975 138.684C74.4 137.079 70.5523 135.574 66.1544 134.167C61.7564 132.86 57.2582 131.703 52.6597 130.696C48.0611 129.789 43.5122 129.082 39.013 128.575C34.5137 128.068 30.4141 127.812 26.7141 127.806C21.1141 127.798 17.2133 128.342 15.0116 129.438C12.9099 130.535 11.8577 131.983 11.8549 133.783ZM82.2524 200.637C83.1429 206.838 84.9843 212.441 87.7766 217.445C90.5688 222.55 93.8626 226.605 97.658 229.611L97.6228 252.561L2.40418 232.014L2.4539 199.614L72.181 214.571L72.2059 198.371L82.2524 200.637ZM82.1609 260.256C83.0514 266.457 84.8928 272.06 87.6852 277.064C90.4773 282.169 93.7711 286.224 97.5665 289.23L97.5313 312.18L2.31269 291.633L2.36241 259.233L72.0895 274.19L72.1144 257.991L82.1609 260.256ZM40.6305 345.222L40.558 392.472L26.9126 389.451L26.9854 342.051L40.6305 345.222ZM43.1285 476.843C43.1239 479.843 44.3701 482.345 46.867 484.349C49.3638 486.453 52.4112 488.157 56.0092 489.463C59.607 490.868 63.3555 491.874 67.2546 492.48C71.1536 493.086 74.5532 493.391 77.4532 493.396C80.1532 493.4 82.4039 492.953 84.2052 492.056C86.1066 491.159 87.0596 489.211 87.0642 486.211L87.0746 479.461L43.1391 469.943L43.1285 476.843ZM33.5424 467.828L2.05275 461.03L2.10247 428.63L97.3213 449.026L97.2681 483.676C97.2594 489.376 96.9514 494.576 96.3442 499.275C95.737 503.974 94.5307 508.022 92.7255 511.419C90.9203 514.817 88.3163 517.463 84.9133 519.357C81.6104 521.252 77.159 522.195 71.559 522.187C66.359 522.179 61.4103 521.321 56.7129 519.614C52.1154 518.007 48.0694 515.351 44.5751 511.645C41.1807 508.04 38.4879 503.336 36.4968 497.533C34.5057 491.73 33.5165 484.678 33.5292 476.378L33.5424 467.828ZM66.4457 530.82L66.4082 555.27L55.1548 557.503L55.1532 558.553C58.7496 560.859 61.7951 563.813 64.2896 567.417C66.784 571.021 68.0267 575.773 68.0177 581.673C68.0171 582.073 67.9662 582.673 67.8649 583.473C67.8636 584.373 67.7121 585.322 67.4106 586.322C67.2089 587.422 66.8572 588.521 66.3555 589.62C65.9537 590.82 65.3519 591.969 64.5502 593.068L33.6604 586.42L33.6855 570.07C39.8858 569.88 44.1866 569.336 46.588 568.44C49.0894 567.544 50.3416 566.096 50.3446 564.096C50.3462 563.096 50.0979 561.995 49.5997 560.795C49.2014 559.694 48.2532 558.543 46.755 557.34L1.91979 547.671L1.96675 517.071L66.4457 530.82ZM31.953 623.827C29.7536 623.424 27.654 623.121 25.6544 622.918C23.6545 622.815 21.8546 622.762 20.2546 622.759C19.3546 622.758 18.3545 622.806 17.2544 622.905C16.1542 623.003 15.1039 623.202 14.1034 623.5C13.2028 623.899 12.4021 624.397 11.7011 624.996C11.1001 625.695 10.7986 626.645 10.7968 627.845C10.7954 628.745 11.0939 629.745 11.6922 630.846C12.2903 632.047 13.1386 633.198 14.2369 634.3C15.335 635.502 16.6833 636.604 18.2818 637.606C19.8801 638.709 21.6788 639.562 23.6779 640.165L23.6401 664.765L7.59614 660.84C6.29921 658.838 5.20274 656.536 4.30673 653.935C3.41072 651.334 2.66494 648.582 2.06939 645.682C1.57384 642.781 1.22837 639.83 1.03297 636.83C0.737577 633.829 0.591951 630.979 0.596094 628.279C0.603767 623.279 1.0609 618.63 1.9675 614.331C2.8741 610.033 4.42985 606.285 6.63476 603.088C8.83967 599.892 11.7436 597.346 15.3465 595.452C19.0492 593.658 23.6006 592.765 29.0006 592.773C33.9006 592.78 38.6995 593.538 43.3971 595.045C48.0947 596.652 52.2407 599.258 55.8352 602.864C59.5295 606.57 62.472 611.474 64.6626 617.578C66.8531 623.781 67.9413 631.483 67.9271 640.683C67.9118 650.683 66.3503 658.18 63.2426 663.175C60.1348 668.271 55.2809 670.813 48.6809 670.803C45.9809 670.799 43.0315 670.394 39.8327 669.59C36.734 668.785 34.0858 667.581 31.8883 665.977L31.953 623.827ZM49.7723 643.805C52.8723 643.809 54.9731 643.313 56.0746 642.314C57.1762 641.316 57.728 640.117 57.7301 638.717C57.7326 637.117 57.1849 635.616 56.0871 634.214C55.0891 632.913 53.6909 631.711 51.8926 630.608C50.1943 629.505 48.1958 628.502 45.8972 627.599C43.6986 626.695 41.3497 625.942 38.8507 625.338L38.8244 642.438C40.0241 642.64 41.2738 642.842 42.5735 643.044C43.6732 643.245 44.8729 643.397 46.1728 643.499C47.4725 643.701 48.6723 643.803 49.7723 643.805ZM47.2566 719.232C47.7564 719.333 48.2563 719.434 48.7561 719.535C49.256 719.635 49.8059 719.686 50.4059 719.687C52.2059 719.69 53.8564 719.342 55.3575 718.645C56.9584 718.047 57.7603 716.798 57.7632 714.898C57.7659 713.198 57.0185 711.497 55.5211 709.795C54.1237 708.093 52.225 707.24 49.825 707.236C48.225 707.234 46.9244 707.632 45.9232 708.43C45.0218 709.329 44.27 710.478 43.6679 711.877C43.0657 713.276 42.5633 714.825 42.1607 716.524C41.758 718.324 41.3553 720.073 40.9527 721.773C40.349 724.172 39.5955 726.42 38.6923 728.519C37.8889 730.718 36.786 732.666 35.3833 734.364C33.9807 736.062 32.2287 737.409 30.1271 738.406C28.1256 739.403 25.6248 739.899 22.6248 739.894C18.4248 739.888 14.8764 738.883 11.9795 736.878C9.18238 734.974 6.88652 732.27 5.0919 728.768C3.39712 725.365 2.20333 721.313 1.51054 716.612C0.817605 712.011 0.475201 707.06 0.483334 701.76C0.495764 693.66 1.10604 686.961 2.31418 681.663C3.52231 676.365 4.67798 672.667 5.78121 670.568L20.7764 673.742L20.7453 693.991C20.2454 693.891 19.7455 693.84 19.2455 693.839C18.8455 693.839 18.3955 693.838 17.8955 693.837C15.5955 693.834 13.7448 694.331 12.3432 695.329C11.0415 696.427 10.3887 698.276 10.3847 700.876C10.3803 703.776 11.1771 705.827 12.7753 707.029C14.4733 708.332 16.0223 708.984 17.4223 708.986C18.8223 708.989 20.0231 708.44 21.0248 707.342C22.1263 706.344 23.0283 705.045 23.7308 703.446C24.5332 701.847 25.186 700.048 25.6891 698.049C26.292 696.15 26.8448 694.301 27.3476 692.502C27.6496 691.202 28.1519 689.703 28.8545 688.004C29.5569 686.405 30.5593 684.857 31.8616 683.359C33.1639 681.861 34.8158 680.613 36.8174 679.616C38.9189 678.619 41.5197 678.123 44.6197 678.128C49.0196 678.135 52.668 679.19 55.5648 681.295C58.5614 683.5 60.9571 686.303 62.7519 689.706C64.5465 693.209 65.8405 697.111 66.634 701.412C67.4272 705.813 67.8204 710.214 67.8137 714.614C67.8053 720.114 67.2973 725.313 66.2898 730.211C65.2822 735.11 63.9761 739.108 62.3713 742.205L47.2267 738.732L47.2566 719.232ZM31.7158 778.368C29.5164 777.965 27.4169 777.662 25.4172 777.459C23.4174 777.355 21.6174 777.303 20.0174 777.3C19.1174 777.299 18.1174 777.347 17.0172 777.446C15.9171 777.544 14.8668 777.742 13.8663 778.041C12.9657 778.439 12.1649 778.938 11.464 779.537C10.8629 780.236 10.5615 781.186 10.5596 782.386C10.5582 783.286 10.8567 784.286 11.455 785.387C12.0532 786.588 12.9014 787.739 13.9997 788.841C15.0979 790.043 16.4462 791.145 18.0447 792.147C19.643 793.25 21.4417 794.102 23.4407 794.706L23.403 819.305L7.35899 815.381C6.06206 813.379 4.96559 811.077 4.06958 808.476C3.17357 805.874 2.42779 803.123 1.83224 800.222C1.33669 797.322 0.99122 794.371 0.795824 791.371C0.500428 788.37 0.354801 785.52 0.358944 782.82C0.366617 777.82 0.823752 773.171 1.73035 768.872C2.63695 764.574 4.1927 760.826 6.39761 757.629C8.60252 754.433 11.5064 751.887 15.1093 749.993C18.8121 748.198 23.3635 747.305 28.7635 747.314C33.6635 747.321 38.4623 748.079 43.16 749.586C47.8575 751.193 52.0035 753.799 55.598 757.405C59.2923 761.11 62.2348 766.015 64.4254 772.118C66.6159 778.322 67.7041 786.023 67.69 795.223C67.6746 805.223 66.1131 812.721 63.0055 817.716C59.8976 822.811 55.0437 825.354 48.4437 825.344C45.7438 825.34 42.7944 824.935 39.5956 824.13C36.4968 823.326 33.8487 822.122 31.6511 820.518L31.7158 778.368ZM49.5352 798.346C52.6352 798.35 54.7359 797.854 55.8375 796.855C56.939 795.857 57.4908 794.658 57.493 793.258C57.4955 791.658 56.9478 790.157 55.8499 788.755C54.8519 787.454 53.4537 786.252 51.6554 785.149C49.9571 784.046 47.9587 783.043 45.66 782.14C43.4614 781.236 41.1126 780.483 38.6135 779.879L38.5873 796.979C39.787 797.181 41.0366 797.383 42.3363 797.585C43.436 797.786 44.6358 797.938 45.9356 798.04C47.2353 798.242 48.4352 798.344 49.5352 798.346ZM56.3284 867.937C58.3252 870.04 60.1716 872.393 61.8676 874.996C63.264 877.298 64.5599 880 65.7551 883.102C66.9504 886.204 67.5451 889.655 67.5393 893.455C67.5313 898.655 66.1747 902.952 63.4695 906.348C60.8642 909.744 57.2616 911.439 52.6616 911.432C51.3616 911.43 49.7619 911.277 47.8623 910.974C46.0628 910.672 44.1633 910.319 42.164 909.916C40.1646 909.513 38.1153 909.059 36.016 908.556C34.0167 908.153 32.2172 907.8 30.6177 907.498L1.37736 901.153L1.42409 870.703L40.5614 879.013C41.8611 879.215 43.1607 879.467 44.4602 879.769C45.8598 880.071 47.1095 880.223 48.2095 880.225C49.7095 880.227 50.9101 879.829 51.8114 879.03C52.8124 878.332 53.3141 877.233 53.3164 875.733C53.3192 873.933 52.6719 872.182 51.3745 870.48C50.0769 868.878 48.9789 867.626 48.0802 866.725L1.44549 856.753L1.49245 826.153L65.9714 839.902L65.9339 864.352L56.3298 867.037L56.3284 867.937ZM65.8457 921.81C66.6401 925.511 67.5351 928.763 68.5308 931.564C69.5265 934.366 70.7726 936.918 72.269 939.22C73.7653 941.622 75.6119 943.875 77.8087 945.979C80.0053 948.182 82.7017 950.536 85.8978 953.041L85.8741 968.491L65.7808 964.11L65.7629 975.81L55.7159 973.845L55.7341 961.995L26.4935 955.8C24.1943 955.296 22.1449 954.893 20.3454 954.59C18.5458 954.288 17.1461 954.135 16.1461 954.134C14.1461 954.131 12.895 954.829 12.3929 956.228C11.8906 957.727 11.6363 960.477 11.6302 964.477L1.28366 962.211C1.08474 961.511 0.936425 960.411 0.838727 958.91C0.740875 957.51 0.643331 955.91 0.546093 954.11C0.348702 952.41 0.251464 950.61 0.25438 948.71C0.157142 946.909 0.109597 945.309 0.111746 943.909C0.115582 941.409 0.319342 938.96 0.723024 936.56C1.02671 934.161 1.68001 932.012 2.68292 930.113C3.78583 928.215 5.33821 926.667 7.34005 925.47C9.34174 924.373 12.0426 923.828 15.4426 923.833C16.6426 923.835 18.1425 923.887 19.9423 923.99C21.742 924.193 23.7415 924.546 25.9407 925.049L55.781 931.395L55.799 919.695L65.8457 921.81Z" fill="#060E28"/>
</svg>
