<svg width="99" height="1112" viewBox="0 0 99 1112" fill="none" xmlns="http://www.w3.org/2000/svg">
<path d="M10.1 79.6C8.9 77.1 7.7 74.5 6.5 71.8C5.4 69.2 4.4 66.4 3.5 63.4C2.7 60.4 2.05 57.1 1.55 53.5C1.05 50 0.799998 46.15 0.799998 41.95C0.799998 28.55 3.8 18.2 9.8 10.9C15.8 3.69999 25.8 0.0999949 39.8 0.0999955C47.9 0.0999959 55.5 1.35 62.6 3.85C69.8 6.35 76.05 10.05 81.35 14.95C86.75 19.85 91 25.9 94.1 33.1C97.2 40.3 98.75 48.55 98.75 57.85C98.75 62.25 98.45 66.25 97.85 69.85C97.25 73.55 96.45 76.85 95.45 79.75C94.55 82.75 93.55 85.4 92.45 87.7C91.35 90.1 90.3 92.25 89.3 94.15L61.4 88.75L61.4 61.75C62.4 61.85 63.7 61.95 65.3 62.05C66.9 62.25 68.5 62.4 70.1 62.5C71.8 62.6 73.45 62.7 75.05 62.8C76.65 62.9 78 62.95 79.1 62.95C79.9 62.95 80.8 62.9 81.8 62.8C82.9 62.7 83.95 62.45 84.95 62.05C85.95 61.65 86.75 61 87.35 60.1C88.05 59.3 88.4 58.2 88.4 56.8C88.4 54.2 87.3 51.8 85.1 49.6C83 47.5 80.15 45.6 76.55 43.9C73.05 42.2 69.05 40.7 64.55 39.4C60.05 38.1 55.45 37 50.75 36.1C46.15 35.3 41.6 34.65 37.1 34.15C32.6 33.75 28.65 33.55 25.25 33.55C24.25 33.55 23 33.6 21.5 33.7C20 33.8 18.55 34.1 17.15 34.6C15.75 35.1 14.55 35.85 13.55 36.85C12.55 37.95 12.05 39.4 12.05 41.2C12.05 44.3 13.95 47.3 17.75 50.2C21.65 53.1 28.55 55.65 38.45 57.85L38.45 85.6L10.1 79.6ZM98.75 152.451C98.75 161.051 97.65 168.001 95.45 173.301C93.25 178.701 89.85 182.951 85.25 186.051C82.15 188.051 78.65 189.601 74.75 190.701C70.85 191.801 66.35 192.351 61.25 192.351C56.85 192.351 52.45 191.951 48.05 191.151C43.65 190.351 39.4 189.201 35.3 187.701C31.3 186.301 27.5 184.551 23.9 182.451C20.4 180.451 17.3 178.201 14.6 175.701C9.49999 171.001 5.89999 165.551 3.79999 159.351C1.79999 153.251 0.799993 145.701 0.799994 136.701C0.799994 128.001 1.69999 121.001 3.49999 115.701C5.3 110.401 8.2 106.201 12.2 103.101C15 100.901 18.55 99.1508 22.85 97.8508C27.15 96.6508 32.55 96.0508 39.05 96.0508C50.15 96.0508 60.05 98.0008 68.75 101.901C77.55 105.901 84.5 111.551 89.6 118.851C92.7 123.251 95 128.151 96.5 133.551C98 138.951 98.75 145.251 98.75 152.451ZM11.3 135.501C11.3 137.801 12.3 139.951 14.3 141.951C16.4 144.051 19.15 145.951 22.55 147.651C26.05 149.451 30 151.051 34.4 152.451C38.8 153.951 43.35 155.201 48.05 156.201C52.75 157.201 57.4 157.951 62 158.451C66.7 159.051 70.95 159.351 74.75 159.351C79.95 159.351 83.5 158.801 85.4 157.701C87.4 156.701 88.4 155.201 88.4 153.201C88.4 150.901 87.4 148.701 85.4 146.601C83.4 144.501 80.7 142.501 77.3 140.601C74 138.801 70.15 137.151 65.75 135.651C61.45 134.251 57 133.001 52.4 131.901C47.8 130.901 43.25 130.101 38.75 129.501C34.25 129.001 30.1 128.751 26.3 128.751C20.6 128.751 16.65 129.351 14.45 130.551C12.35 131.851 11.3 133.501 11.3 135.501ZM1.99999 273.436L1.99999 238.336L70.85 221.686L1.99999 206.986L1.99999 193.486L97.25 213.736L97.25 249.586L27.5 265.336L97.25 280.186L97.25 293.986L1.99999 273.436ZM69.65 349.12C71.15 349.42 73.2 349.57 75.8 349.57C77.3 349.57 78.75 349.47 80.15 349.27C81.65 349.07 82.95 348.72 84.05 348.22C85.25 347.72 86.15 346.97 86.75 345.97C87.45 344.97 87.8 343.67 87.8 342.07C87.8 340.27 87.4 338.62 86.6 337.12C85.8 335.62 84.75 334.27 83.45 333.07C82.25 331.97 80.8 331.07 79.1 330.37C77.5 329.77 75.8 329.47 74 329.47C71.4 329.47 69.4 330.12 68 331.42C66.6 332.82 65.45 334.62 64.55 336.82C63.65 339.02 62.9 341.52 62.3 344.32C61.7 347.12 61 350.02 60.2 353.02C59.5 355.52 58.6 358.02 57.5 360.52C56.4 363.02 54.9 365.22 53 367.12C51.2 369.12 48.8 370.72 45.8 371.92C42.9 373.12 39.25 373.72 34.85 373.72C28.55 373.72 23.25 372.47 18.95 369.97C14.65 367.47 11.15 364.02 8.44998 359.62C5.74998 355.22 3.79998 349.97 2.59998 343.87C1.39998 337.87 0.799985 331.32 0.799986 324.22C0.799986 317.02 1.24999 311.12 2.14999 306.52C3.14999 302.02 4.19999 298.47 5.29999 295.87C6.59999 292.77 8.09999 290.47 9.79999 288.97L30.35 294.07L30.35 320.47C29.45 320.37 28.2 320.27 26.6 320.17C25.1 320.07 23.9 320.02 23 320.02C21.8 320.02 20.55 320.17 19.25 320.47C17.95 320.77 16.75 321.22 15.65 321.82C14.55 322.52 13.65 323.47 12.95 324.67C12.25 325.87 11.9 327.37 11.9 329.17C11.9 331.17 12.35 332.92 13.25 334.42C14.15 336.02 15.25 337.32 16.55 338.32C17.95 339.42 19.45 340.22 21.05 340.72C22.75 341.32 24.4 341.62 26 341.62C28.2 341.62 30.05 341.07 31.55 339.97C33.05 338.97 34.3 337.57 35.3 335.77C36.4 333.97 37.3 331.87 38 329.47C38.8 327.17 39.6 324.77 40.4 322.27C41.1 319.87 41.95 317.32 42.95 314.62C43.95 312.02 45.35 309.62 47.15 307.42C48.95 305.22 51.2 303.37 53.9 301.87C56.7 300.47 60.25 299.77 64.55 299.77C70.95 299.77 76.3 301.37 80.6 304.57C85 307.87 88.55 311.97 91.25 316.87C93.95 321.87 95.85 327.32 96.95 333.22C98.15 339.12 98.75 344.72 98.75 350.02C98.75 357.02 97.9 363.02 96.2 368.02C94.6 373.12 92.7 376.97 90.5 379.57L69.65 374.02L69.65 349.12ZM85.85 467.942L85.85 443.792L1.99998 425.942L1.99998 393.542L85.85 411.392L85.85 387.542L97.25 390.242L97.25 470.492L85.85 467.942ZM74.6 553.245C68.7 553.245 63.25 551.595 58.25 548.295C53.25 544.995 49.45 539.545 46.85 531.945L1.99998 549.345L1.99998 515.895L43.55 502.695L43.55 501.045L1.99998 492.195L1.99998 459.795L97.25 480.045L97.25 519.495C97.25 524.095 96.95 528.445 96.35 532.545C95.85 536.645 94.75 540.195 93.05 543.195C91.45 546.295 89.15 548.745 86.15 550.545C83.25 552.345 79.4 553.245 74.6 553.245ZM53.15 510.045C53.15 512.645 54 514.845 55.7 516.645C57.5 518.545 59.65 520.045 62.15 521.145C64.65 522.345 67.3 523.195 70.1 523.695C73 524.195 75.5 524.445 77.6 524.445C80.2 524.445 82.4 523.995 84.2 523.095C86.1 522.195 87.05 520.245 87.05 517.245L87.05 510.495L53.15 502.995L53.15 510.045ZM36.05 593.595C33.85 593.095 31.95 592.695 30.35 592.395C28.75 592.095 27.25 591.945 25.85 591.945C22.35 591.945 19.55 593.145 17.45 595.545C15.35 598.045 14.3 601.695 14.3 606.495C14.3 609.995 14.9 612.845 16.1 615.045C17.3 617.345 18.9 619.195 20.9 620.595C22.9 622.095 25.2 623.245 27.8 624.045C30.4 624.945 33.15 625.695 36.05 626.295L97.25 639.045L97.25 652.695L35.75 639.645C30.95 638.645 26.45 637.195 22.25 635.295C18.05 633.395 14.35 630.645 11.15 627.045C7.94997 623.545 5.39997 618.995 3.49997 613.395C1.69997 607.795 0.799973 600.845 0.799974 592.545C0.799974 581.045 2.64997 572.545 6.34998 567.045C10.15 561.545 15.95 558.795 23.75 558.795C27.25 558.795 31.7 559.245 37.1 560.145C42.5 561.045 48.35 562.195 54.65 563.595L97.25 572.745L97.25 606.795L36.05 593.595ZM10.1 732.627C8.89997 730.127 7.69997 727.527 6.49997 724.827C5.39997 722.227 4.39997 719.427 3.49997 716.427C2.69997 713.427 2.04997 710.127 1.54997 706.527C1.04997 703.027 0.799969 699.177 0.799969 694.977C0.79997 681.577 3.79997 671.227 9.79997 663.927C15.8 656.727 25.8 653.127 39.8 653.127C47.9 653.127 55.5 654.377 62.6 656.877C69.8 659.377 76.05 663.077 81.35 667.977C86.75 672.877 91 678.927 94.1 686.127C97.2 693.327 98.75 701.577 98.75 710.877C98.75 715.277 98.45 719.277 97.85 722.877C97.25 726.577 96.45 729.877 95.45 732.777C94.55 735.777 93.55 738.427 92.45 740.727C91.35 743.127 90.3 745.277 89.3 747.177L61.4 741.777L61.4 714.777C62.4 714.877 63.7 714.977 65.3 715.077C66.9 715.277 68.5 715.427 70.1 715.527C71.8 715.627 73.45 715.727 75.05 715.827C76.65 715.927 78 715.977 79.1 715.977C79.9 715.977 80.8 715.927 81.8 715.827C82.9 715.727 83.95 715.477 84.95 715.077C85.95 714.677 86.75 714.027 87.35 713.127C88.05 712.327 88.4 711.227 88.4 709.827C88.4 707.227 87.3 704.827 85.1 702.627C83 700.527 80.15 698.627 76.55 696.927C73.05 695.227 69.05 693.727 64.55 692.427C60.05 691.127 55.45 690.027 50.75 689.127C46.15 688.327 41.6 687.677 37.1 687.177C32.6 686.777 28.65 686.577 25.25 686.577C24.25 686.577 23 686.627 21.5 686.727C20 686.827 18.55 687.127 17.15 687.627C15.75 688.127 14.55 688.877 13.55 689.877C12.55 690.977 12.05 692.427 12.05 694.227C12.05 697.327 13.95 700.327 17.75 703.227C21.65 706.127 28.55 708.677 38.45 710.877L38.45 738.627L10.1 732.627ZM85.85 835.178L85.85 811.028L1.99997 793.178L1.99997 760.778L85.85 778.628L85.85 754.778L97.25 757.478L97.25 837.728L85.85 835.178ZM98.75 886.045C98.75 894.645 97.65 901.595 95.45 906.895C93.25 912.295 89.85 916.545 85.25 919.645C82.15 921.645 78.65 923.195 74.75 924.295C70.85 925.395 66.35 925.945 61.25 925.945C56.85 925.945 52.45 925.545 48.05 924.745C43.65 923.945 39.4 922.795 35.3 921.295C31.3 919.895 27.5 918.145 23.9 916.045C20.4 914.045 17.3 911.795 14.6 909.295C9.49996 904.595 5.89996 899.145 3.79996 892.945C1.79996 886.845 0.799961 879.295 0.799962 870.295C0.799962 861.595 1.69996 854.595 3.49996 849.295C5.29996 843.995 8.19996 839.795 12.2 836.695C15 834.495 18.55 832.745 22.85 831.445C27.15 830.245 32.55 829.645 39.05 829.645C50.15 829.645 60.05 831.595 68.75 835.495C77.55 839.495 84.5 845.145 89.6 852.445C92.7 856.845 95 861.745 96.5 867.145C98 872.545 98.75 878.845 98.75 886.045ZM11.3 869.095C11.3 871.395 12.3 873.545 14.3 875.545C16.4 877.645 19.15 879.545 22.55 881.245C26.05 883.045 30 884.645 34.4 886.045C38.8 887.545 43.35 888.795 48.05 889.795C52.75 890.795 57.4 891.545 62 892.045C66.7 892.645 70.95 892.945 74.75 892.945C79.95 892.945 83.5 892.395 85.4 891.295C87.4 890.295 88.4 888.795 88.4 886.795C88.4 884.495 87.4 882.295 85.4 880.195C83.4 878.095 80.7 876.095 77.3 874.195C74 872.395 70.15 870.745 65.75 869.245C61.45 867.845 57 866.595 52.4 865.495C47.8 864.495 43.25 863.695 38.75 863.095C34.25 862.595 30.1 862.345 26.3 862.345C20.6 862.345 16.65 862.945 14.45 864.145C12.35 865.445 11.3 867.095 11.3 869.095ZM74.6 1020.53C68.7 1020.53 63.25 1018.88 58.25 1015.58C53.25 1012.28 49.45 1006.83 46.85 999.23L1.99996 1016.63L1.99996 983.18L43.55 969.98L43.55 968.33L1.99996 959.48L1.99996 927.08L97.25 947.33L97.25 986.78C97.25 991.38 96.95 995.73 96.35 999.83C95.85 1003.93 94.75 1007.48 93.05 1010.48C91.45 1013.58 89.15 1016.03 86.15 1017.83C83.25 1019.63 79.4 1020.53 74.6 1020.53ZM53.15 977.33C53.15 979.93 54 982.13 55.7 983.93C57.5 985.83 59.65 987.33 62.15 988.43C64.65 989.63 67.3 990.48 70.1 990.98C73 991.48 75.5 991.73 77.6 991.73C80.2 991.73 82.4 991.28 84.2 990.38C86.1 989.48 87.05 987.53 87.05 984.53L87.05 977.78L53.15 970.28L53.15 977.33ZM69.65 1081.1C71.15 1081.4 73.2 1081.55 75.8 1081.55C77.3 1081.55 78.75 1081.45 80.15 1081.25C81.65 1081.05 82.95 1080.7 84.05 1080.2C85.25 1079.7 86.15 1078.95 86.75 1077.95C87.45 1076.95 87.8 1075.65 87.8 1074.05C87.8 1072.25 87.4 1070.6 86.6 1069.1C85.8 1067.6 84.75 1066.25 83.45 1065.05C82.25 1063.95 80.8 1063.05 79.1 1062.35C77.5 1061.75 75.8 1061.45 74 1061.45C71.4 1061.45 69.4 1062.1 68 1063.4C66.6 1064.8 65.45 1066.6 64.55 1068.8C63.65 1071 62.9 1073.5 62.3 1076.3C61.7 1079.1 61 1082 60.2 1085C59.5 1087.5 58.6 1090 57.5 1092.5C56.4 1095 54.9 1097.2 53 1099.1C51.2 1101.1 48.8 1102.7 45.8 1103.9C42.9 1105.1 39.25 1105.7 34.85 1105.7C28.55 1105.7 23.25 1104.45 18.95 1101.95C14.65 1099.45 11.15 1096 8.44995 1091.6C5.74995 1087.2 3.79995 1081.95 2.59995 1075.85C1.39995 1069.85 0.799953 1063.3 0.799954 1056.2C0.799954 1049 1.24995 1043.1 2.14995 1038.5C3.14995 1034 4.19995 1030.45 5.29996 1027.85C6.59996 1024.75 8.09996 1022.45 9.79996 1020.95L30.35 1026.05L30.35 1052.45C29.45 1052.35 28.2 1052.25 26.6 1052.15C25.1 1052.05 23.9 1052 23 1052C21.8 1052 20.55 1052.15 19.25 1052.45C17.95 1052.75 16.75 1053.2 15.65 1053.8C14.55 1054.5 13.65 1055.45 12.95 1056.65C12.25 1057.85 11.9 1059.35 11.9 1061.15C11.9 1063.15 12.35 1064.9 13.25 1066.4C14.15 1068 15.25 1069.3 16.55 1070.3C17.95 1071.4 19.45 1072.2 21.05 1072.7C22.75 1073.3 24.4 1073.6 26 1073.6C28.2 1073.6 30.05 1073.05 31.55 1071.95C33.05 1070.95 34.3 1069.55 35.3 1067.75C36.4 1065.95 37.3 1063.85 38 1061.45C38.8 1059.15 39.6 1056.75 40.4 1054.25C41.1 1051.85 41.95 1049.3 42.95 1046.6C43.95 1044 45.35 1041.6 47.15 1039.4C48.95 1037.2 51.2 1035.35 53.9 1033.85C56.7 1032.45 60.25 1031.75 64.55 1031.75C70.95 1031.75 76.3 1033.35 80.6 1036.55C85 1039.85 88.55 1043.95 91.25 1048.85C93.95 1053.85 95.85 1059.3 96.95 1065.2C98.15 1071.1 98.75 1076.7 98.75 1082C98.75 1089 97.9 1095 96.2 1100C94.6 1105.1 92.7 1108.95 90.5 1111.55L69.65 1106L69.65 1081.1Z" fill="#060E28"/>
</svg>
