<svg width="618" height="209" viewBox="0 0 618 209" fill="none" xmlns="http://www.w3.org/2000/svg">
<rect opacity="0.7" y="14" width="618" height="195" fill="#111F4D"/>
<path d="M284.557 122.273C284.557 124.176 284.196 125.795 283.474 127.131C282.759 128.466 281.781 129.486 280.543 130.19C279.31 130.889 277.923 131.239 276.384 131.239C274.832 131.239 273.44 130.886 272.207 130.182C270.974 129.477 270 128.457 269.284 127.122C268.568 125.787 268.21 124.17 268.21 122.273C268.21 120.369 268.568 118.75 269.284 117.415C270 116.08 270.974 115.062 272.207 114.364C273.44 113.659 274.832 113.307 276.384 113.307C277.923 113.307 279.31 113.659 280.543 114.364C281.781 115.062 282.759 116.08 283.474 117.415C284.196 118.75 284.557 120.369 284.557 122.273ZM280.815 122.273C280.815 121.04 280.631 120 280.261 119.153C279.898 118.307 279.384 117.665 278.719 117.227C278.054 116.79 277.276 116.571 276.384 116.571C275.491 116.571 274.713 116.79 274.048 117.227C273.384 117.665 272.866 118.307 272.497 119.153C272.134 120 271.952 121.04 271.952 122.273C271.952 123.506 272.134 124.545 272.497 125.392C272.866 126.239 273.384 126.881 274.048 127.318C274.713 127.756 275.491 127.974 276.384 127.974C277.276 127.974 278.054 127.756 278.719 127.318C279.384 126.881 279.898 126.239 280.261 125.392C280.631 124.545 280.815 123.506 280.815 122.273ZM287.29 131V113.545H298.847V116.588H290.981V120.747H298.08V123.79H290.981V131H287.29Z" fill="white"/>
<path d="M153.5 98H131.9L137.9 69.7H125.6L119.6 98H98L111.5 34.5H133.2L127.3 62.1H139.5L145.4 34.5L167.2 34.5L153.5 98ZM186.202 98H164.602L178.102 34.5H199.802L186.202 98ZM236.619 52.9C236.819 51.9 236.919 50.5333 236.919 48.8C236.919 47.8 236.852 46.8333 236.719 45.9C236.585 44.9 236.352 44.0333 236.019 43.3C235.685 42.5 235.185 41.9 234.519 41.5C233.852 41.0333 232.985 40.8 231.919 40.8C230.719 40.8 229.619 41.0667 228.619 41.6C227.619 42.1333 226.719 42.8333 225.919 43.7C225.185 44.5 224.585 45.4667 224.119 46.6C223.719 47.6667 223.519 48.8 223.519 50C223.519 51.7333 223.952 53.0667 224.819 54C225.752 54.9333 226.952 55.7 228.419 56.3C229.885 56.9 231.552 57.4 233.419 57.8C235.285 58.2 237.219 58.6667 239.219 59.2C240.885 59.6667 242.552 60.2667 244.219 61C245.885 61.7333 247.352 62.7333 248.619 64C249.952 65.2 251.019 66.8 251.819 68.8C252.619 70.7333 253.019 73.1667 253.019 76.1C253.019 80.3 252.185 83.8333 250.519 86.7C248.852 89.5667 246.552 91.9 243.619 93.7C240.685 95.5 237.185 96.8 233.119 97.6C229.119 98.4 224.752 98.8 220.019 98.8C215.219 98.8 211.285 98.5 208.219 97.9C205.219 97.2333 202.852 96.5333 201.119 95.8C199.052 94.9333 197.519 93.9333 196.519 92.8L199.919 79.1L217.519 79.1C217.452 79.7 217.385 80.5333 217.319 81.6C217.252 82.6 217.219 83.4 217.219 84C217.219 84.8 217.319 85.6333 217.519 86.5C217.719 87.3667 218.019 88.1667 218.419 88.9C218.885 89.6333 219.519 90.2333 220.319 90.7C221.119 91.1667 222.119 91.4 223.319 91.4C224.652 91.4 225.819 91.1 226.819 90.5C227.885 89.9 228.752 89.1667 229.419 88.3C230.152 87.3667 230.685 86.3667 231.019 85.3C231.419 84.1667 231.619 83.0667 231.619 82C231.619 80.5333 231.252 79.3 230.519 78.3C229.852 77.3 228.919 76.4667 227.719 75.8C226.519 75.0667 225.119 74.4667 223.519 74C221.985 73.4667 220.385 72.9333 218.719 72.4C217.119 71.9333 215.419 71.3667 213.619 70.7C211.885 70.0333 210.285 69.1 208.819 67.9C207.352 66.7 206.119 65.2 205.119 63.4C204.185 61.5333 203.719 59.1667 203.719 56.3C203.719 52.0333 204.785 48.4667 206.919 45.6C209.119 42.6667 211.852 40.3 215.119 38.5C218.452 36.7 222.085 35.4333 226.019 34.7C229.952 33.9 233.685 33.5 237.219 33.5C241.885 33.5 245.885 34.0667 249.219 35.2C252.619 36.2667 255.185 37.5333 256.919 39L253.219 52.9H236.619ZM315.834 42.1H299.734L287.834 98H266.234L278.134 42.1H262.234L264.034 34.5H317.534L315.834 42.1ZM349.745 33.5C355.478 33.5 360.111 34.2333 363.645 35.7C367.245 37.1667 370.078 39.4333 372.145 42.5C373.478 44.5667 374.511 46.9 375.245 49.5C375.978 52.1 376.345 55.1 376.345 58.5C376.345 61.4333 376.078 64.3667 375.545 67.3C375.011 70.2333 374.245 73.0667 373.245 75.8C372.311 78.4667 371.145 81 369.745 83.4C368.411 85.7333 366.911 87.8 365.245 89.6C362.111 93 358.478 95.4 354.345 96.8C350.278 98.1333 345.245 98.8 339.245 98.8C333.445 98.8 328.778 98.2 325.245 97C321.711 95.8 318.911 93.8667 316.845 91.2C315.378 89.3333 314.211 86.9667 313.345 84.1C312.545 81.2333 312.145 77.6333 312.145 73.3C312.145 65.9 313.445 59.3 316.045 53.5C318.711 47.6333 322.478 43 327.345 39.6C330.278 37.5333 333.545 36 337.145 35C340.745 34 344.945 33.5 349.745 33.5ZM338.445 91.8C339.978 91.8 341.411 91.1333 342.745 89.8C344.145 88.4 345.411 86.5667 346.545 84.3C347.745 81.9667 348.811 79.3333 349.745 76.4C350.745 73.4667 351.578 70.4333 352.245 67.3C352.911 64.1667 353.411 61.0667 353.745 58C354.145 54.8667 354.345 52.0333 354.345 49.5C354.345 46.0333 353.978 43.6667 353.245 42.4C352.578 41.0667 351.578 40.4 350.245 40.4C348.711 40.4 347.245 41.0667 345.845 42.4C344.445 43.7333 343.111 45.5333 341.845 47.8C340.645 50 339.545 52.5667 338.545 55.5C337.611 58.3667 336.778 61.3333 336.045 64.4C335.378 67.4667 334.845 70.5 334.445 73.5C334.111 76.5 333.945 79.2667 333.945 81.8C333.945 85.6 334.345 88.2333 335.145 89.7C336.011 91.1 337.111 91.8 338.445 91.8ZM439.402 49.6C439.402 53.5333 438.302 57.1667 436.102 60.5C433.902 63.8333 430.268 66.3667 425.202 68.1L436.802 98H414.502L405.702 70.3H404.602L398.702 98H377.102L390.602 34.5H416.902C419.968 34.5 422.868 34.7 425.602 35.1C428.335 35.4333 430.702 36.1667 432.702 37.3C434.768 38.3667 436.402 39.9 437.602 41.9C438.802 43.8333 439.402 46.4 439.402 49.6ZM410.602 63.9C412.335 63.9 413.802 63.3333 415.002 62.2C416.268 61 417.268 59.5667 418.002 57.9C418.802 56.2333 419.368 54.4667 419.702 52.6C420.035 50.6667 420.202 49 420.202 47.6C420.202 45.8667 419.902 44.4 419.302 43.2C418.702 41.9333 417.402 41.3 415.402 41.3H410.902L405.902 63.9H410.602ZM475.377 74L470.277 98H448.577L454.077 72.3L444.277 34.5L468.277 34.5L475.077 59.6L490.077 34.5H500.877L475.377 74Z" fill="#F2F4F7"/>
<path d="M146.64 144.36H173.584L172.56 149.224H159.44L156.944 160.936H167.888L166.864 165.864H155.92L151.824 185H138L146.64 144.36ZM195.429 143.72C199.098 143.72 202.064 144.189 204.325 145.128C206.629 146.067 208.442 147.517 209.765 149.48C210.618 150.803 211.28 152.296 211.749 153.96C212.218 155.624 212.453 157.544 212.453 159.72C212.453 161.597 212.282 163.475 211.941 165.352C211.6 167.229 211.109 169.043 210.469 170.792C209.872 172.499 209.125 174.12 208.229 175.656C207.376 177.149 206.416 178.472 205.349 179.624C203.344 181.8 201.018 183.336 198.373 184.232C195.77 185.085 192.549 185.512 188.709 185.512C184.997 185.512 182.01 185.128 179.749 184.36C177.488 183.592 175.696 182.355 174.373 180.648C173.434 179.453 172.688 177.939 172.133 176.104C171.621 174.269 171.365 171.965 171.365 169.192C171.365 164.456 172.197 160.232 173.861 156.52C175.568 152.765 177.978 149.8 181.093 147.624C182.97 146.301 185.061 145.32 187.365 144.68C189.669 144.04 192.357 143.72 195.429 143.72ZM188.197 181.032C189.178 181.032 190.096 180.605 190.949 179.752C191.845 178.856 192.656 177.683 193.381 176.232C194.149 174.739 194.832 173.053 195.429 171.176C196.069 169.299 196.602 167.357 197.029 165.352C197.456 163.347 197.776 161.363 197.989 159.4C198.245 157.395 198.373 155.581 198.373 153.96C198.373 151.741 198.138 150.227 197.669 149.416C197.242 148.563 196.602 148.136 195.749 148.136C194.768 148.136 193.829 148.563 192.933 149.416C192.037 150.269 191.184 151.421 190.373 152.872C189.605 154.28 188.901 155.923 188.261 157.8C187.664 159.635 187.13 161.533 186.661 163.496C186.234 165.459 185.893 167.4 185.637 169.32C185.424 171.24 185.317 173.011 185.317 174.632C185.317 177.064 185.573 178.749 186.085 179.688C186.64 180.584 187.344 181.032 188.197 181.032ZM252.81 154.024C252.81 156.541 252.106 158.867 250.698 161C249.29 163.133 246.964 164.755 243.722 165.864L251.146 185H236.874L231.242 167.272H230.538L226.762 185H212.938L221.578 144.36H238.41C240.372 144.36 242.228 144.488 243.978 144.744C245.727 144.957 247.242 145.427 248.522 146.152C249.844 146.835 250.89 147.816 251.658 149.096C252.426 150.333 252.81 151.976 252.81 154.024ZM234.378 163.176C235.487 163.176 236.426 162.813 237.194 162.088C238.004 161.32 238.644 160.403 239.114 159.336C239.626 158.269 239.988 157.139 240.202 155.944C240.415 154.707 240.522 153.64 240.522 152.744C240.522 151.635 240.33 150.696 239.946 149.928C239.562 149.117 238.73 148.712 237.45 148.712H234.57L231.37 163.176H234.378ZM300.414 185H286.206L292.094 157.352L276.926 185H268.222L265.342 156.392L259.198 185H253.438L262.078 144.36H278.398L280.382 167.272L292.67 144.36H309.118L300.414 185ZM324.526 170.472C324.312 171.411 324.142 172.221 324.014 172.904C323.886 173.587 323.822 174.227 323.822 174.824C323.822 176.317 324.334 177.512 325.358 178.408C326.424 179.304 327.982 179.752 330.03 179.752C331.523 179.752 332.739 179.496 333.678 178.984C334.659 178.472 335.448 177.789 336.046 176.936C336.686 176.083 337.176 175.101 337.518 173.992C337.902 172.883 338.222 171.709 338.478 170.472L343.918 144.36H349.742L344.174 170.6C343.747 172.648 343.128 174.568 342.318 176.36C341.507 178.152 340.334 179.731 338.798 181.096C337.304 182.461 335.363 183.549 332.974 184.36C330.584 185.128 327.619 185.512 324.078 185.512C319.171 185.512 315.544 184.723 313.198 183.144C310.851 181.523 309.678 179.048 309.678 175.72C309.678 174.227 309.87 172.328 310.254 170.024C310.638 167.72 311.128 165.224 311.726 162.536L315.63 144.36H330.158L324.526 170.472ZM356.39 144.36H370.278L362.726 179.624H375.718L374.63 185H347.75L356.39 144.36ZM414.081 185L399.105 185L398.209 174.824H386.369L381.825 185H375.617L394.497 144.36H409.665L414.081 185ZM388.481 170.152H397.761L396.289 152.744L388.481 170.152ZM432.296 150.952C434.941 150.568 437.33 149.779 439.464 148.584C441.64 147.389 443.368 145.981 444.648 144.36H454.44L445.736 185H431.911L438.248 155.24H431.336L432.296 150.952Z" fill="white"/>
<line x1="98.0072" y1="119" x2="236.007" y2="119.993" stroke="#E43A19" stroke-width="2"/>
<line x1="330.007" y1="120" x2="468.007" y2="120.993" stroke="#E43A19" stroke-width="2"/>
</svg>
