<svg width="103" height="574" viewBox="0 0 103 574" fill="none" xmlns="http://www.w3.org/2000/svg">
<path d="M99.1917 57.0041C99.2538 65.6039 98.204 72.5616 96.0423 77.8774C93.8814 83.2931 90.5122 87.5676 85.9347 90.7007C82.8492 92.7231 79.3605 94.2983 75.4686 95.4264C71.5766 96.5546 67.0807 97.1371 61.9808 97.1739C57.5809 97.2057 53.1782 96.8375 48.7725 96.0693C44.3668 95.3011 40.1086 94.1818 35.9979 92.7114C31.9879 91.3404 28.1754 89.6179 24.5603 87.5439C21.0459 85.5693 17.9298 83.3417 15.2118 80.8613C10.078 76.1982 6.43871 70.7744 4.29398 64.5897C2.24998 58.5043 1.19548 50.9617 1.13047 41.962C1.06764 33.2622 1.91706 26.2559 3.67873 20.943C5.4404 15.6301 8.30999 11.4093 12.2875 8.28049C15.0715 6.06033 18.6088 4.28473 22.8993 2.95371C27.1905 1.72269 32.5861 1.0837 39.0859 1.03675C50.1856 0.956584 60.0994 2.83503 68.8274 6.67209C77.656 10.6084 84.6466 16.2081 89.7992 23.4711C92.9309 27.8486 95.2663 32.7318 96.8052 38.1208C98.3442 43.5099 99.1397 49.8043 99.1917 57.0041ZM11.6215 40.6861C11.6381 42.9861 12.6536 45.1288 14.668 47.1143C16.7832 49.1991 19.5468 51.0792 22.959 52.7546C26.4719 54.5293 30.4334 56.1007 34.8434 57.4689C39.2541 58.9371 43.813 60.1542 48.5201 61.1202C53.2272 62.0862 57.8825 62.8026 62.486 63.2694C67.1902 63.8354 71.4422 64.1047 75.2421 64.0773C80.442 64.0397 83.9879 63.4641 85.8799 62.3504C87.8727 61.336 88.8618 59.8288 88.8474 57.8288C88.8308 55.5289 87.8149 53.3362 85.7998 51.2507C83.7847 49.1652 81.0703 47.1847 77.6566 45.3093C74.3437 43.5332 70.4819 41.9111 66.0712 40.4429C61.7612 39.074 57.3023 37.8561 52.6945 36.7894C48.0874 35.8226 43.5317 35.0555 39.0275 34.4881C34.524 34.0206 30.3723 33.8005 26.5724 33.828C20.8725 33.8692 16.927 34.4977 14.7357 35.7135C12.6451 37.0287 11.6071 38.6862 11.6215 40.6861ZM76.0136 191.661C70.1138 191.703 64.652 190.093 59.6283 186.829C54.6046 183.565 50.7653 178.143 48.1105 170.562L3.38735 188.285L3.14576 154.836L44.5993 141.336L44.5874 139.686L2.97458 131.137L2.74058 98.7374L98.1344 118.299L98.4193 157.748C98.4525 162.348 98.1839 166.7 97.6135 170.804C97.1432 174.908 96.0688 178.465 94.3906 181.478C92.813 184.589 90.5307 187.056 87.5438 188.877C84.6569 190.698 80.8135 191.626 76.0136 191.661ZM54.2522 148.617C54.271 151.217 55.1368 153.41 56.8498 155.198C58.6635 157.085 60.8242 158.569 63.3321 159.651C65.8407 160.833 68.4968 161.664 71.3003 162.144C74.2039 162.623 76.7056 162.855 78.8055 162.84C81.4055 162.821 83.6022 162.355 85.3956 161.442C87.2891 160.528 88.225 158.572 88.2033 155.572L88.1545 148.822L54.2013 141.567L54.2522 148.617ZM3.66016 226.056L3.42615 193.657L98.8199 213.218L99.055 245.767L3.66016 226.056ZM47.663 295.516L47.9436 334.365L4.38187 325.979L4.25403 308.28L13.8332 305.36L13.8289 304.76C10.8102 302.182 8.23784 299.101 6.11189 295.516C3.98667 292.031 2.90347 287.439 2.86231 281.739C2.83053 277.339 3.49981 273.084 4.87017 268.974C6.34124 264.963 8.61518 261.347 11.692 258.125C14.8695 255.001 19.0013 252.472 24.0875 250.535C29.1736 248.598 35.3166 247.604 42.5164 247.552C50.3162 247.495 57.7247 248.642 64.7418 250.991C71.759 253.341 77.9348 256.896 83.2694 261.658C88.7039 266.419 92.9971 272.388 96.149 279.565C99.301 286.743 100.912 295.131 100.981 304.731C101.034 312.131 100.231 318.587 98.5707 324.099C96.9105 329.611 95.0481 334.824 92.9836 339.74L63.8432 334.25L63.6601 308.9C64.7608 308.993 66.0618 309.133 67.5632 309.322C69.0646 309.511 70.6157 309.65 72.2163 309.739C73.917 309.826 75.5677 309.915 77.1684 310.003C78.7691 310.091 80.1694 310.131 81.3694 310.123C82.1693 310.117 83.069 310.06 84.0682 309.953C85.1675 309.845 86.2156 309.588 87.2127 309.18C88.2098 308.773 89.0054 308.167 89.5996 307.363C90.2938 306.558 90.6355 305.406 90.6247 303.906C90.6059 301.306 89.4886 298.914 87.2728 296.73C85.1577 294.645 82.294 292.765 78.6818 291.092C75.1696 289.417 71.1589 287.946 66.6496 286.678C62.1411 285.511 57.5336 284.494 52.8273 283.628C48.2216 282.861 43.667 282.244 39.1635 281.777C34.7608 281.409 30.9094 281.236 27.6095 281.26C26.6095 281.267 25.3599 281.326 23.8607 281.437C22.3614 281.548 20.8636 281.859 19.3673 282.37C17.9717 282.98 16.7275 283.789 15.6347 284.797C14.6427 285.904 14.1539 287.457 14.1683 289.457C14.1922 292.757 16.0152 295.944 19.6375 299.018C23.2598 302.092 29.2767 304.399 37.688 305.938L37.597 293.338L47.663 295.516ZM4.70862 371.218L4.47461 338.819L99.8684 358.381L100.103 390.93L4.70862 371.218ZM5.40541 467.691L5.15191 432.592L73.8799 415.445L4.92548 401.243L4.82798 387.743L100.222 407.305L100.481 443.154L30.8462 459.407L100.702 473.753L100.801 487.553L5.40541 467.691ZM73.6003 542.884C75.1024 543.173 77.1534 543.308 79.7534 543.29C81.2533 543.279 82.7026 543.168 84.1011 542.958C85.5996 542.747 86.897 542.388 87.9934 541.88C89.1898 541.371 90.0843 540.615 90.6771 539.611C91.3698 538.606 91.7104 537.303 91.6989 535.703C91.6859 533.903 91.274 532.256 90.4632 530.762C89.6524 529.268 88.5926 527.925 87.284 526.735C86.0761 525.643 84.6196 524.754 82.9146 524.066C81.3103 523.478 79.6082 523.19 77.8082 523.203C75.2083 523.222 73.2131 523.886 71.8225 525.196C70.4326 526.606 69.2957 528.415 68.4116 530.621C67.5275 532.828 66.7956 535.333 66.2158 538.137C65.636 540.941 64.957 543.846 64.1787 546.852C63.4968 549.357 62.6148 551.864 61.5329 554.371C60.451 556.879 58.9669 559.09 57.0807 561.004C55.2952 563.017 52.9068 564.634 49.9156 565.856C47.0243 567.077 43.3787 567.703 38.9789 567.735C32.679 567.78 27.3701 566.569 23.0522 564.1C18.7342 561.631 15.2094 558.206 12.4777 553.826C9.746 549.445 7.75813 544.21 6.5141 538.118C5.2708 532.127 4.62351 525.582 4.57223 518.482C4.52023 511.282 4.9276 505.379 5.79435 500.773C6.76183 496.266 7.78616 492.708 8.86735 490.1C10.1449 486.991 11.6283 484.68 13.3174 483.168L33.9037 488.119L34.0944 514.519C33.1937 514.425 31.943 514.334 30.3423 514.246C28.8416 514.157 27.6413 514.115 26.7413 514.122C25.5413 514.13 24.2925 514.289 22.9947 514.599C21.6969 514.908 20.5001 515.367 19.4045 515.975C18.3096 516.683 17.4165 517.639 16.7252 518.844C16.0338 520.049 15.6947 521.552 15.7077 523.352C15.7221 525.352 16.1848 527.098 17.0956 528.592C18.0071 530.185 19.1165 531.477 20.4237 532.468C21.8316 533.558 23.3373 534.347 24.9409 534.835C26.6452 535.423 28.2973 535.711 29.8972 535.699C32.0972 535.684 33.9432 535.12 35.4352 534.009C36.9279 532.999 38.1678 531.59 39.1547 529.782C40.2417 527.975 41.1265 525.868 41.8092 523.463C42.5925 521.157 43.3752 518.752 44.1571 516.246C44.8398 513.841 45.6713 511.285 46.6518 508.578C47.633 505.971 49.0156 503.561 50.7997 501.348C52.5837 499.135 54.8203 497.268 57.5094 495.749C60.2992 494.329 63.8441 493.603 68.144 493.572C74.5438 493.526 79.9052 495.087 84.2282 498.256C88.6519 501.524 92.2315 505.598 94.9668 510.479C97.7028 515.459 99.6421 520.895 100.785 526.787C102.027 532.678 102.668 538.274 102.706 543.574C102.757 550.574 101.95 556.58 100.286 561.592C98.723 566.703 96.8508 570.567 94.6697 573.183L73.7801 567.783L73.6003 542.884Z" fill="#060E28"/>
</svg>
