<svg width="99" height="839" viewBox="0 0 99 839" fill="none" xmlns="http://www.w3.org/2000/svg">
<path d="M97.8939 0.877128L97.8377 37.4771L32.8839 39.9274L97.7954 65.0771L97.7498 94.777L32.7939 98.5773L97.7052 123.877L97.681 139.627L2.48794 102.431L2.53973 68.6809L56.3945 65.6135L2.57909 43.0309L2.63434 7.03096L97.8939 0.877128ZM68.5285 173.785C68.5103 185.685 66.397 194.331 62.1887 199.725C57.78 205.418 50.4756 208.257 40.2756 208.241C33.9756 208.232 28.2772 207.173 23.1805 205.065C18.1837 202.957 14.0382 200.001 10.7441 196.196C4.35574 188.586 1.17262 177.581 1.19472 163.181C1.21359 150.881 3.57709 142.085 8.28522 136.792C13.194 131.1 20.5483 128.261 30.3483 128.276C36.8483 128.286 42.7463 129.595 48.0423 132.203C53.3382 134.911 57.7322 138.768 61.2246 143.773C66.1134 151.081 68.548 161.085 68.5285 173.785ZM11.3942 163.497C11.3904 165.997 12.7871 168.149 15.5843 169.953C18.3814 171.858 21.7791 173.363 25.7774 174.469C29.8757 175.575 34.0745 176.382 38.3737 176.888C42.7728 177.495 46.5723 177.801 49.7723 177.806C52.5723 177.81 54.6728 177.513 56.0737 176.916C57.5745 176.418 58.3262 175.269 58.329 173.469C58.3331 170.769 56.8868 168.417 53.9898 166.412C51.0927 164.508 47.6451 162.953 43.647 161.746C39.6488 160.54 35.5502 159.634 31.3511 159.028C27.1519 158.521 23.7523 158.266 21.1523 158.262C14.6523 158.252 11.3996 159.997 11.3942 163.497ZM57.157 252.997C59.1537 255.1 61.0001 257.452 62.6961 260.055C64.0926 262.357 65.3884 265.109 66.5835 268.311C67.7786 271.513 68.373 275.114 68.3669 279.114C68.3595 283.914 67.2541 287.462 65.0506 289.759C62.8469 292.155 60.1448 293.501 56.9443 293.796L56.943 294.696C59.0394 296.999 60.9356 299.502 62.6315 302.205C64.0279 304.507 65.3238 307.209 66.519 310.311C67.7143 313.413 68.3092 316.714 68.3038 320.214C68.2958 325.414 66.8394 329.611 63.9345 332.807C61.1294 336.103 57.4769 337.747 52.9769 337.74C50.6769 337.737 47.6275 337.332 43.8288 336.526C40.03 335.72 35.8814 334.814 31.3829 333.807L2.14262 327.462L2.18797 297.912L41.3255 306.072C42.825 306.375 44.2746 306.677 45.6741 306.979C47.0736 307.281 48.2234 307.433 49.1234 307.434C50.5234 307.436 51.674 307.038 52.5753 306.24C53.5765 305.441 54.0782 304.292 54.0805 302.792C54.0835 300.892 53.3862 299.091 51.9888 297.389C50.6913 295.787 49.5932 294.535 48.6946 293.634L2.2096 283.812L2.25265 255.762L41.3899 264.072C42.6896 264.274 43.9893 264.526 45.2888 264.828C46.6883 265.131 47.9381 265.282 49.0381 265.284C50.5381 265.286 51.7387 264.888 52.6399 264.09C53.641 263.391 54.1427 262.292 54.145 260.792C54.1478 258.992 53.5004 257.241 52.2031 255.539C50.9055 253.937 49.8074 252.685 48.9088 251.784L2.27406 241.812L2.32101 211.212L66.8 224.961L66.7625 249.411L57.1583 252.097L57.157 252.997ZM32.2202 374.658C30.0209 374.254 27.9213 373.951 25.9216 373.748C23.9218 373.645 22.1219 373.592 20.5219 373.59C19.6219 373.588 18.6218 373.637 17.5216 373.735C16.4215 373.833 15.3712 374.032 14.3707 374.33C13.4701 374.729 12.6693 375.228 11.9684 375.827C11.3673 376.526 11.0659 377.475 11.064 378.675C11.0627 379.575 11.3611 380.576 11.9594 381.677C12.5576 382.877 13.4058 384.029 14.5041 385.13C15.6023 386.332 16.9506 387.434 18.5491 388.437C20.1474 389.539 21.9461 390.392 23.9452 390.995L23.9074 415.595L7.86341 411.67C6.56648 409.668 5.47001 407.367 4.574 404.765C3.67799 402.164 2.93221 399.413 2.33666 396.512C1.84111 393.611 1.49564 390.661 1.30024 387.66C1.00485 384.66 0.859222 381.81 0.863365 379.11C0.871038 374.11 1.32817 369.46 2.23477 365.162C3.14137 360.863 4.69712 357.115 6.90203 353.919C9.10694 350.722 12.0108 348.177 15.6138 346.282C19.3165 344.488 23.8679 343.595 29.2679 343.603C34.1679 343.611 38.9667 344.368 43.6644 345.875C48.362 347.482 52.508 350.089 56.1024 353.694C59.7968 357.4 62.7392 362.304 64.9299 368.408C67.1203 374.611 68.2085 382.313 68.1944 391.513C68.1791 401.513 66.6176 409.01 63.5099 414.006C60.4021 419.101 55.5482 421.643 48.9482 421.633C46.2482 421.629 43.2988 421.225 40.1 420.42C37.0013 419.615 34.3531 418.411 32.1556 416.808L32.2202 374.658ZM50.0396 394.635C53.1396 394.64 55.2404 394.143 56.3419 393.145C57.4434 392.146 57.9953 390.947 57.9974 389.547C57.9999 387.947 57.4522 386.446 56.3543 385.045C55.3563 383.743 53.9582 382.541 52.1599 381.438C50.4615 380.336 48.4631 379.333 46.1645 378.429C43.9658 377.526 41.617 376.772 39.1179 376.168L39.0917 393.268C40.2914 393.47 41.5411 393.672 42.8408 393.874C43.9405 394.076 45.1402 394.227 46.4401 394.329C47.7398 394.531 48.9396 394.633 50.0396 394.635ZM56.8328 464.227C58.8296 466.33 60.676 468.683 62.372 471.285C63.7685 473.587 65.0643 476.289 66.2596 479.391C67.4548 482.493 68.0495 485.944 68.0437 489.744C68.0357 494.944 66.6791 499.242 63.9739 502.638C61.3687 506.034 57.7661 507.728 53.1661 507.721C51.8661 507.719 50.2663 507.567 48.3668 507.264C46.5672 506.961 44.6678 506.608 42.6684 506.205C40.669 505.802 38.6197 505.349 36.5205 504.846C34.5211 504.443 32.7216 504.09 31.1221 503.787L1.88178 497.442L1.92851 466.993L41.0658 475.303C42.3655 475.505 43.6651 475.757 44.9646 476.059C46.3642 476.361 47.614 476.513 48.714 476.514C50.2139 476.517 51.4146 476.118 52.3158 475.32C53.3169 474.621 53.8185 473.522 53.8209 472.022C53.8236 470.222 53.1763 468.471 51.8789 466.769C50.5814 465.167 49.4833 463.915 48.5847 463.014L1.94991 453.043L1.99687 422.443L66.4758 436.192L66.4383 460.642L56.8342 463.327L56.8328 464.227ZM1.77121 569.494L1.81794 539.044L66.2969 552.793L66.2497 583.543L1.77121 569.494ZM85.8937 587.473C83.5937 587.47 81.5945 586.966 79.896 585.964C78.1974 585.061 76.7493 583.809 75.5518 582.207C74.3541 580.705 73.4568 578.954 72.8599 576.953C72.2629 574.952 71.9661 572.902 71.9693 570.802C71.9754 566.802 72.9306 563.453 74.8347 560.756C76.7389 558.059 79.7409 556.714 83.8409 556.72C86.0409 556.723 87.9902 557.176 89.6888 558.079C91.4875 558.982 92.9356 560.184 94.0333 561.686C95.2309 563.287 96.1281 565.089 96.725 567.09C97.3218 569.191 97.6185 571.341 97.6151 573.541C97.6091 577.441 96.6541 580.74 94.7499 583.437C92.8458 586.134 89.8937 587.479 85.8937 587.473ZM56.5865 624.773C58.5832 626.877 60.4296 629.229 62.1256 631.832C63.5221 634.134 64.818 636.836 66.0132 639.938C67.2084 643.04 67.8031 646.491 67.7973 650.291C67.7893 655.491 66.4327 659.789 63.7275 663.184C61.1223 666.58 57.5197 668.275 52.9197 668.268C51.6197 668.266 50.0199 668.113 48.1204 667.811C46.3209 667.508 44.4214 667.155 42.422 666.752C40.4226 666.349 38.3733 665.896 36.2741 665.392C34.2747 664.989 32.4753 664.636 30.8757 664.334L1.63541 657.989L1.68214 627.539L40.8194 635.849C42.1191 636.051 43.4187 636.303 44.7183 636.605C46.1178 636.907 47.3676 637.059 48.4676 637.061C49.9676 637.063 51.1682 636.665 52.0694 635.867C53.0705 635.168 53.5722 634.069 53.5745 632.569C53.5772 630.769 52.9299 629.018 51.6325 627.316C50.335 625.714 49.2369 624.462 48.3383 623.561L1.70355 613.589L1.7505 582.989L66.2295 596.738L66.192 621.188L56.5878 623.873L56.5865 624.773ZM96.7881 721.487L96.6912 784.637L85.2949 782.219L85.3421 751.469L57.9011 745.577L57.8617 771.227L46.3154 768.809L46.3548 743.159L1.51955 733.491L1.56927 701.091L96.7881 721.487ZM81.2384 786.427C82.1289 792.628 83.9703 798.231 86.7626 803.236C89.5548 808.34 92.8486 812.395 96.644 815.401L96.6088 838.351L1.39017 817.805L1.43989 785.405L71.167 800.362L71.1919 784.162L81.2384 786.427Z" fill="#060E28"/>
</svg>
