<svg width="414" height="58" viewBox="0 0 414 58" fill="none" xmlns="http://www.w3.org/2000/svg">
<path d="M227 25C227 11.1929 238.193 0 252 0H389C402.807 0 414 11.1929 414 25V33C414 46.8071 402.807 58 389 58H252C238.193 58 227 46.8071 227 33V25Z" fill="#8B2915"/>
<path d="M273.818 28.0178C273.797 24.2978 275.426 21.4942 278.717 19.4269C276.877 16.6996 274.092 15.1996 270.422 14.9105C266.947 14.6269 263.145 17.0051 261.752 17.0051C260.281 17.0051 256.917 15.0087 254.269 15.0087C248.806 15.096 243 19.5142 243 28.5033C243 31.1596 243.469 33.9033 244.408 36.7287C245.663 40.4487 250.188 49.5633 254.907 49.416C257.375 49.356 259.121 47.6051 262.332 47.6051C265.449 47.6051 267.063 49.416 269.815 49.416C274.577 49.3451 278.67 41.0596 279.861 37.3287C273.475 34.2142 273.818 28.2087 273.818 28.0178ZM268.276 11.3815C270.949 8.09782 270.707 5.10873 270.628 4.03418C268.265 4.176 265.533 5.69782 263.978 7.56873C262.264 9.576 261.257 12.0578 261.473 14.856C264.025 15.0578 266.356 13.6996 268.276 11.3815Z" fill="black"/>
<path d="M291.239 19H288.55V11.7273H291.235C291.976 11.7273 292.614 11.8729 293.149 12.1641C293.687 12.4529 294.101 12.8696 294.392 13.4141C294.683 13.9562 294.829 14.6049 294.829 15.3601C294.829 16.1177 294.683 16.7687 294.392 17.3132C294.103 17.8577 293.69 18.2756 293.153 18.5668C292.615 18.8556 291.977 19 291.239 19ZM290.308 17.5014H291.171C291.578 17.5014 291.923 17.4328 292.205 17.2955C292.489 17.1558 292.703 16.9297 292.847 16.6172C292.994 16.3023 293.067 15.8833 293.067 15.3601C293.067 14.8369 292.994 14.4202 292.847 14.1101C292.701 13.7976 292.484 13.5727 292.197 13.4354C291.913 13.2957 291.563 13.2259 291.146 13.2259H290.308V17.5014ZM302.719 15.3636C302.719 16.1638 302.566 16.8421 302.258 17.3984C301.95 17.9548 301.533 18.3774 301.008 18.6662C300.485 18.955 299.897 19.0994 299.246 19.0994C298.593 19.0994 298.005 18.9538 297.482 18.6626C296.958 18.3714 296.543 17.9489 296.235 17.3949C295.93 16.8385 295.777 16.1615 295.777 15.3636C295.777 14.5634 295.93 13.8852 296.235 13.3288C296.543 12.7725 296.958 12.3499 297.482 12.0611C298.005 11.7723 298.593 11.6278 299.246 11.6278C299.897 11.6278 300.485 11.7723 301.008 12.0611C301.533 12.3499 301.95 12.7725 302.258 13.3288C302.566 13.8852 302.719 14.5634 302.719 15.3636ZM300.923 15.3636C300.923 14.8902 300.855 14.4901 300.72 14.1634C300.588 13.8366 300.396 13.5893 300.145 13.4212C299.896 13.2531 299.597 13.169 299.246 13.169C298.898 13.169 298.599 13.2531 298.348 13.4212C298.097 13.5893 297.904 13.8366 297.769 14.1634C297.637 14.4901 297.57 14.8902 297.57 15.3636C297.57 15.8371 297.637 16.2372 297.769 16.5639C297.904 16.8906 298.097 17.138 298.348 17.3061C298.599 17.4742 298.898 17.5582 299.246 17.5582C299.597 17.5582 299.896 17.4742 300.145 17.3061C300.396 17.138 300.588 16.8906 300.72 16.5639C300.855 16.2372 300.923 15.8371 300.923 15.3636ZM305.128 19L303.012 11.7273H304.954L306.051 16.4929H306.112L307.365 11.7273H308.949L310.203 16.5036H310.263L311.364 11.7273H313.303L311.19 19H309.496L308.186 14.5895H308.129L306.818 19H305.128ZM320.219 11.7273V19H318.727L315.833 14.8026H315.787V19H314.029V11.7273H315.542L318.404 15.9176H318.464V11.7273H320.219ZM321.324 19V11.7273H323.082V17.5724H326.107V19H321.324ZM333.598 15.3636C333.598 16.1638 333.444 16.8421 333.137 17.3984C332.829 17.9548 332.412 18.3774 331.887 18.6662C331.364 18.955 330.776 19.0994 330.125 19.0994C329.472 19.0994 328.884 18.9538 328.36 18.6626C327.837 18.3714 327.422 17.9489 327.114 17.3949C326.809 16.8385 326.656 16.1615 326.656 15.3636C326.656 14.5634 326.809 13.8852 327.114 13.3288C327.422 12.7725 327.837 12.3499 328.36 12.0611C328.884 11.7723 329.472 11.6278 330.125 11.6278C330.776 11.6278 331.364 11.7723 331.887 12.0611C332.412 12.3499 332.829 12.7725 333.137 13.3288C333.444 13.8852 333.598 14.5634 333.598 15.3636ZM331.801 15.3636C331.801 14.8902 331.734 14.4901 331.599 14.1634C331.467 13.8366 331.275 13.5893 331.024 13.4212C330.775 13.2531 330.476 13.169 330.125 13.169C329.777 13.169 329.478 13.2531 329.227 13.4212C328.976 13.5893 328.783 13.8366 328.648 14.1634C328.516 14.4901 328.449 14.8902 328.449 15.3636C328.449 15.8371 328.516 16.2372 328.648 16.5639C328.783 16.8906 328.976 17.138 329.227 17.3061C329.478 17.4742 329.777 17.5582 330.125 17.5582C330.476 17.5582 330.775 17.4742 331.024 17.3061C331.275 17.138 331.467 16.8906 331.599 16.5639C331.734 16.2372 331.801 15.8371 331.801 15.3636ZM335.768 19H333.879L336.333 11.7273H338.673L341.127 19H339.238L337.529 13.5597H337.473L335.768 19ZM335.516 16.1378H339.465V17.473H335.516V16.1378ZM344.598 19H341.91V11.7273H344.594C345.335 11.7273 345.973 11.8729 346.509 12.1641C347.046 12.4529 347.46 12.8696 347.751 13.4141C348.043 13.9562 348.188 14.6049 348.188 15.3601C348.188 16.1177 348.043 16.7687 347.751 17.3132C347.463 17.8577 347.049 18.2756 346.512 18.5668C345.975 18.8556 345.337 19 344.598 19ZM343.668 17.5014H344.531C344.938 17.5014 345.282 17.4328 345.564 17.2955C345.848 17.1558 346.062 16.9297 346.207 16.6172C346.353 16.3023 346.427 15.8833 346.427 15.3601C346.427 14.8369 346.353 14.4202 346.207 14.1101C346.06 13.7976 345.843 13.5727 345.557 13.4354C345.273 13.2957 344.922 13.2259 344.506 13.2259H343.668V17.5014ZM358.227 15.3636C358.227 16.1638 358.073 16.8421 357.766 17.3984C357.458 17.9548 357.041 18.3774 356.516 18.6662C355.992 18.955 355.405 19.0994 354.754 19.0994C354.101 19.0994 353.513 18.9538 352.989 18.6626C352.466 18.3714 352.051 17.9489 351.743 17.3949C351.438 16.8385 351.285 16.1615 351.285 15.3636C351.285 14.5634 351.438 13.8852 351.743 13.3288C352.051 12.7725 352.466 12.3499 352.989 12.0611C353.513 11.7723 354.101 11.6278 354.754 11.6278C355.405 11.6278 355.992 11.7723 356.516 12.0611C357.041 12.3499 357.458 12.7725 357.766 13.3288C358.073 13.8852 358.227 14.5634 358.227 15.3636ZM356.43 15.3636C356.43 14.8902 356.363 14.4901 356.228 14.1634C356.095 13.8366 355.904 13.5893 355.653 13.4212C355.404 13.2531 355.105 13.169 354.754 13.169C354.406 13.169 354.107 13.2531 353.856 13.4212C353.605 13.5893 353.412 13.8366 353.277 14.1634C353.144 14.4901 353.078 14.8902 353.078 15.3636C353.078 15.8371 353.144 16.2372 353.277 16.5639C353.412 16.8906 353.605 17.138 353.856 17.3061C354.107 17.4742 354.406 17.5582 354.754 17.5582C355.105 17.5582 355.404 17.4742 355.653 17.3061C355.904 17.138 356.095 16.8906 356.228 16.5639C356.363 16.2372 356.43 15.8371 356.43 15.3636ZM365.443 11.7273V19H363.952L361.058 14.8026H361.011V19H359.254V11.7273H360.766L363.629 15.9176H363.689V11.7273H365.443ZM368.459 13.1548V11.7273H374.606V13.1548H372.401V19H370.668V13.1548H368.459ZM375.464 19V11.7273H377.222V14.6463H380.088V11.7273H381.842V19H380.088V16.0774H377.222V19H375.464ZM382.945 19V11.7273H388.016V13.1548H384.703V14.6463H387.757V16.0774H384.703V17.5724H388.016V19H382.945ZM291.822 43H288.422L292.839 29.9091H297.051L301.468 43H298.067L294.993 33.2074H294.891L291.822 43ZM291.369 37.848H298.477V40.2514H291.369V37.848ZM302.877 43V29.9091H308.285C309.265 29.9091 310.111 30.1009 310.823 30.4844C311.539 30.8636 312.091 31.3942 312.478 32.076C312.866 32.7536 313.06 33.5419 313.06 34.4411C313.06 35.3445 312.862 36.1349 312.466 36.8125C312.074 37.4858 311.513 38.0078 310.784 38.3786C310.056 38.7493 309.191 38.9347 308.189 38.9347H304.853V36.4418H307.601C308.078 36.4418 308.477 36.3587 308.797 36.1925C309.12 36.0263 309.365 35.794 309.532 35.4957C309.698 35.1932 309.781 34.8416 309.781 34.4411C309.781 34.0362 309.698 33.6868 309.532 33.3928C309.365 33.0945 309.12 32.8643 308.797 32.7024C308.473 32.5405 308.074 32.4595 307.601 32.4595H306.042V43H302.877ZM314.62 43V29.9091H320.027C321.007 29.9091 321.853 30.1009 322.565 30.4844C323.281 30.8636 323.833 31.3942 324.221 32.076C324.608 32.7536 324.802 33.5419 324.802 34.4411C324.802 35.3445 324.604 36.1349 324.208 36.8125C323.816 37.4858 323.255 38.0078 322.527 38.3786C321.798 38.7493 320.933 38.9347 319.931 38.9347H316.595V36.4418H319.343C319.821 36.4418 320.219 36.3587 320.539 36.1925C320.863 36.0263 321.108 35.794 321.274 35.4957C321.44 35.1932 321.523 34.8416 321.523 34.4411C321.523 34.0362 321.44 33.6868 321.274 33.3928C321.108 33.0945 320.863 32.8643 320.539 32.7024C320.215 32.5405 319.816 32.4595 319.343 32.4595H317.784V43H314.62ZM337.305 33.8338C337.262 33.3651 337.073 33.0007 336.736 32.7408C336.404 32.4766 335.929 32.3445 335.311 32.3445C334.902 32.3445 334.561 32.3977 334.288 32.5043C334.015 32.6108 333.811 32.7578 333.674 32.9453C333.538 33.1286 333.468 33.3395 333.463 33.5781C333.455 33.7741 333.493 33.9467 333.578 34.0959C333.668 34.245 333.796 34.3771 333.962 34.4922C334.132 34.603 334.337 34.701 334.576 34.7862C334.814 34.8714 335.083 34.946 335.381 35.0099L336.506 35.2656C337.154 35.4062 337.725 35.5938 338.219 35.8281C338.718 36.0625 339.135 36.3416 339.472 36.6655C339.813 36.9893 340.071 37.3622 340.245 37.7841C340.42 38.206 340.51 38.679 340.514 39.2031C340.51 40.0298 340.301 40.7393 339.887 41.3317C339.474 41.924 338.88 42.3778 338.104 42.6932C337.333 43.0085 336.402 43.1662 335.311 43.1662C334.216 43.1662 333.261 43.0021 332.447 42.674C331.633 42.3459 331 41.8473 330.549 41.1783C330.097 40.5092 329.865 39.6634 329.852 38.6406H332.882C332.907 39.0625 333.02 39.4141 333.221 39.6953C333.421 39.9766 333.696 40.1896 334.045 40.3345C334.399 40.4794 334.808 40.5518 335.272 40.5518C335.699 40.5518 336.061 40.4943 336.359 40.3793C336.662 40.2642 336.894 40.1044 337.056 39.8999C337.218 39.6953 337.301 39.4609 337.305 39.1967C337.301 38.9496 337.224 38.7386 337.075 38.5639C336.926 38.3849 336.696 38.2315 336.385 38.1037C336.078 37.9716 335.686 37.8501 335.208 37.7393L333.841 37.4197C332.707 37.1598 331.814 36.7401 331.162 36.1605C330.51 35.5767 330.186 34.7884 330.191 33.7955C330.186 32.9858 330.404 32.2763 330.843 31.6669C331.282 31.0575 331.889 30.5824 332.664 30.2415C333.44 29.9006 334.324 29.7301 335.317 29.7301C336.331 29.7301 337.211 29.9027 337.957 30.2479C338.707 30.5888 339.289 31.0682 339.702 31.6861C340.115 32.304 340.326 33.0199 340.335 33.8338H337.305ZM341.684 32.4787V29.9091H352.748V32.4787H348.779V43H345.659V32.4787H341.684ZM366.052 36.4545C366.052 37.8949 365.775 39.1158 365.221 40.1172C364.667 41.1186 363.917 41.8793 362.971 42.3991C362.029 42.919 360.972 43.179 359.8 43.179C358.624 43.179 357.565 42.9169 356.623 42.3928C355.682 41.8686 354.934 41.108 354.38 40.1108C353.83 39.1094 353.555 37.8906 353.555 36.4545C353.555 35.0142 353.83 33.7933 354.38 32.7919C354.934 31.7905 355.682 31.0298 356.623 30.5099C357.565 29.9901 358.624 29.7301 359.8 29.7301C360.972 29.7301 362.029 29.9901 362.971 30.5099C363.917 31.0298 364.667 31.7905 365.221 32.7919C365.775 33.7933 366.052 35.0142 366.052 36.4545ZM362.817 36.4545C362.817 35.6023 362.696 34.8821 362.453 34.294C362.214 33.706 361.869 33.2607 361.417 32.9581C360.97 32.6555 360.431 32.5043 359.8 32.5043C359.174 32.5043 358.635 32.6555 358.183 32.9581C357.731 33.2607 357.384 33.706 357.141 34.294C356.903 34.8821 356.783 35.6023 356.783 36.4545C356.783 37.3068 356.903 38.027 357.141 38.6151C357.384 39.2031 357.731 39.6484 358.183 39.951C358.635 40.2536 359.174 40.4048 359.8 40.4048C360.431 40.4048 360.97 40.2536 361.417 39.951C361.869 39.6484 362.214 39.2031 362.453 38.6151C362.696 38.027 362.817 37.3068 362.817 36.4545ZM367.899 43V29.9091H373.307C374.287 29.9091 375.133 30.0859 375.844 30.4396C376.56 30.7891 377.112 31.2919 377.5 31.9482C377.888 32.6001 378.081 33.3736 378.081 34.2685C378.081 35.1761 377.883 35.9474 377.487 36.5824C377.091 37.2131 376.528 37.6946 375.8 38.027C375.071 38.3551 374.208 38.5192 373.211 38.5192H369.791V36.0263H372.623C373.1 36.0263 373.498 35.9645 373.818 35.8409C374.142 35.7131 374.387 35.5213 374.553 35.2656C374.719 35.0057 374.802 34.6733 374.802 34.2685C374.802 33.8636 374.719 33.5291 374.553 33.2649C374.387 32.9964 374.142 32.7962 373.818 32.6641C373.494 32.5277 373.096 32.4595 372.623 32.4595H371.063V43H367.899ZM375.269 37.017L378.529 43H375.077L371.881 37.017H375.269ZM379.817 43V29.9091H388.945V32.4787H382.981V35.1634H388.478V37.7393H382.981V40.4304H388.945V43H379.817Z" fill="#F2F4F7"/>
<path d="M0 25C0 11.1929 11.1929 0 25 0H162C175.807 0 187 11.1929 187 25V33C187 46.8071 175.807 58 162 58H25C11.1929 58 0 46.8071 0 33V25Z" fill="#8B2915"/>
<path d="M67.3232 16.103C67.2829 15.9538 67.2237 15.8224 67.1456 15.7088C67.0675 15.5928 66.9716 15.4946 66.858 15.4141C66.7443 15.3336 66.6141 15.2732 66.4673 15.233C66.3205 15.1903 66.1596 15.169 65.9844 15.169C65.6316 15.169 65.3262 15.2543 65.0682 15.4247C64.8125 15.5952 64.6148 15.8437 64.4751 16.1705C64.3355 16.4948 64.2656 16.889 64.2656 17.353C64.2656 17.8194 64.3331 18.2171 64.468 18.5462C64.603 18.8752 64.7983 19.1262 65.054 19.299C65.3097 19.4718 65.6198 19.5582 65.9844 19.5582C66.3063 19.5582 66.5786 19.5062 66.8011 19.402C67.026 19.2955 67.1965 19.1451 67.3125 18.951C67.4285 18.7569 67.4865 18.5284 67.4865 18.2656L67.8132 18.3047H66.0447V17.0227H69.1804V17.9851C69.1804 18.6361 69.0419 19.1937 68.7649 19.6577C68.4903 20.1217 68.1115 20.478 67.6286 20.7266C67.148 20.9751 66.5952 21.0994 65.9702 21.0994C65.2765 21.0994 64.6669 20.9491 64.1413 20.6484C63.6158 20.3478 63.2062 19.9193 62.9126 19.3629C62.6191 18.8042 62.4723 18.1413 62.4723 17.3743C62.4723 16.7777 62.5611 16.2486 62.7386 15.7869C62.9162 15.3229 63.1636 14.9299 63.4808 14.608C63.8004 14.286 64.1697 14.0421 64.5888 13.8764C65.0102 13.7107 65.4635 13.6278 65.9489 13.6278C66.3703 13.6278 66.7621 13.6882 67.1243 13.8089C67.4889 13.9297 67.8108 14.1001 68.0902 14.3203C68.3719 14.5405 68.6004 14.8021 68.7756 15.1051C68.9508 15.4081 69.0597 15.7408 69.1023 16.103H67.3232ZM70.2164 21V13.7273H75.2875V15.1548H71.9743V16.6463H75.0282V18.0774H71.9743V19.5724H75.2875V21H70.2164ZM76.1504 15.1548V13.7273H82.2974V15.1548H80.0922V21H78.3592V15.1548H76.1504ZM87.0621 13.7273V21H85.3043V13.7273H87.0621ZM87.9277 15.1548V13.7273H94.0748V15.1548H91.8695V21H90.1365V15.1548H87.9277ZM103.946 17.3636C103.946 18.1638 103.792 18.8421 103.484 19.3984C103.177 19.9548 102.76 20.3774 102.234 20.6662C101.711 20.955 101.124 21.0994 100.473 21.0994C99.8196 21.0994 99.2313 20.9538 98.7081 20.6626C98.1849 20.3714 97.7694 19.9489 97.4616 19.3949C97.1562 18.8385 97.0036 18.1615 97.0036 17.3636C97.0036 16.5634 97.1562 15.8852 97.4616 15.3288C97.7694 14.7725 98.1849 14.3499 98.7081 14.0611C99.2313 13.7723 99.8196 13.6278 100.473 13.6278C101.124 13.6278 101.711 13.7723 102.234 14.0611C102.76 14.3499 103.177 14.7725 103.484 15.3288C103.792 15.8852 103.946 16.5634 103.946 17.3636ZM102.149 17.3636C102.149 16.8902 102.082 16.4901 101.947 16.1634C101.814 15.8366 101.622 15.5893 101.371 15.4212C101.123 15.2531 100.823 15.169 100.473 15.169C100.125 15.169 99.8255 15.2531 99.5746 15.4212C99.3236 15.5893 99.1307 15.8366 98.9957 16.1634C98.8632 16.4901 98.7969 16.8902 98.7969 17.3636C98.7969 17.8371 98.8632 18.2372 98.9957 18.5639C99.1307 18.8906 99.3236 19.138 99.5746 19.3061C99.8255 19.4742 100.125 19.5582 100.473 19.5582C100.823 19.5582 101.123 19.4742 101.371 19.3061C101.622 19.138 101.814 18.8906 101.947 18.5639C102.082 18.2372 102.149 17.8371 102.149 17.3636ZM111.162 13.7273V21H109.67L106.776 16.8026H106.73V21H104.972V13.7273H106.485L109.347 17.9176H109.408V13.7273H111.162ZM70.517 37.1648C70.4527 36.9261 70.358 36.7159 70.233 36.5341C70.108 36.3485 69.9545 36.1913 69.7727 36.0625C69.5909 35.9337 69.3826 35.8371 69.1477 35.7727C68.9129 35.7045 68.6553 35.6705 68.375 35.6705C67.8106 35.6705 67.322 35.8068 66.9091 36.0795C66.5 36.3523 66.1837 36.75 65.9602 37.2727C65.7367 37.7917 65.625 38.4223 65.625 39.1648C65.625 39.911 65.733 40.5473 65.9489 41.0739C66.1648 41.6004 66.4773 42.0019 66.8864 42.2784C67.2955 42.5549 67.7917 42.6932 68.375 42.6932C68.8902 42.6932 69.3258 42.6098 69.6818 42.4432C70.0417 42.2727 70.3144 42.0322 70.5 41.7216C70.6856 41.411 70.7784 41.0455 70.7784 40.625L71.3011 40.6875H68.4716V38.6364H73.4886V40.1761C73.4886 41.2178 73.267 42.1098 72.8239 42.8523C72.3845 43.5947 71.7784 44.1648 71.0057 44.5625C70.2367 44.9602 69.3523 45.1591 68.3523 45.1591C67.2424 45.1591 66.267 44.9186 65.4261 44.4375C64.5852 43.9564 63.9299 43.2708 63.4602 42.3807C62.9905 41.4867 62.7557 40.4261 62.7557 39.1989C62.7557 38.2443 62.8977 37.3977 63.1818 36.6591C63.4659 35.9167 63.8617 35.2879 64.3693 34.7727C64.8807 34.2576 65.4716 33.8674 66.142 33.6023C66.8163 33.3371 67.5417 33.2045 68.3182 33.2045C68.9924 33.2045 69.6193 33.3011 70.1989 33.4943C70.7822 33.6875 71.2973 33.9602 71.7443 34.3125C72.1951 34.6648 72.5606 35.0833 72.8409 35.5682C73.1212 36.053 73.2955 36.5852 73.3636 37.1648H70.517ZM86.1293 39.1818C86.1293 40.4621 85.883 41.5473 85.3906 42.4375C84.8982 43.3277 84.2315 44.0038 83.3906 44.4659C82.5535 44.928 81.6141 45.1591 80.5724 45.1591C79.527 45.1591 78.5857 44.9261 77.7486 44.4602C76.9115 43.9943 76.2467 43.3182 75.7543 42.4318C75.2656 41.5417 75.0213 40.4583 75.0213 39.1818C75.0213 37.9015 75.2656 36.8163 75.7543 35.9261C76.2467 35.036 76.9115 34.3598 77.7486 33.8977C78.5857 33.4356 79.527 33.2045 80.5724 33.2045C81.6141 33.2045 82.5535 33.4356 83.3906 33.8977C84.2315 34.3598 84.8982 35.036 85.3906 35.9261C85.883 36.8163 86.1293 37.9015 86.1293 39.1818ZM83.2543 39.1818C83.2543 38.4242 83.1463 37.7841 82.9304 37.2614C82.7183 36.7386 82.4115 36.3428 82.0099 36.0739C81.6122 35.8049 81.133 35.6705 80.5724 35.6705C80.0156 35.6705 79.5365 35.8049 79.1349 36.0739C78.7334 36.3428 78.4247 36.7386 78.2088 37.2614C77.9967 37.7841 77.8906 38.4242 77.8906 39.1818C77.8906 39.9394 77.9967 40.5795 78.2088 41.1023C78.4247 41.625 78.7334 42.0208 79.1349 42.2898C79.5365 42.5587 80.0156 42.6932 80.5724 42.6932C81.133 42.6932 81.6122 42.5587 82.0099 42.2898C82.4115 42.0208 82.7183 41.625 82.9304 41.1023C83.1463 40.5795 83.2543 39.9394 83.2543 39.1818ZM98.7543 39.1818C98.7543 40.4621 98.508 41.5473 98.0156 42.4375C97.5232 43.3277 96.8565 44.0038 96.0156 44.4659C95.1785 44.928 94.2391 45.1591 93.1974 45.1591C92.152 45.1591 91.2107 44.9261 90.3736 44.4602C89.5365 43.9943 88.8717 43.3182 88.3793 42.4318C87.8906 41.5417 87.6463 40.4583 87.6463 39.1818C87.6463 37.9015 87.8906 36.8163 88.3793 35.9261C88.8717 35.036 89.5365 34.3598 90.3736 33.8977C91.2107 33.4356 92.152 33.2045 93.1974 33.2045C94.2391 33.2045 95.1785 33.4356 96.0156 33.8977C96.8565 34.3598 97.5232 35.036 98.0156 35.9261C98.508 36.8163 98.7543 37.9015 98.7543 39.1818ZM95.8793 39.1818C95.8793 38.4242 95.7713 37.7841 95.5554 37.2614C95.3433 36.7386 95.0365 36.3428 94.6349 36.0739C94.2372 35.8049 93.758 35.6705 93.1974 35.6705C92.6406 35.6705 92.1615 35.8049 91.7599 36.0739C91.3584 36.3428 91.0497 36.7386 90.8338 37.2614C90.6217 37.7841 90.5156 38.4242 90.5156 39.1818C90.5156 39.9394 90.6217 40.5795 90.8338 41.1023C91.0497 41.625 91.3584 42.0208 91.7599 42.2898C92.1615 42.5587 92.6406 42.6932 93.1974 42.6932C93.758 42.6932 94.2372 42.5587 94.6349 42.2898C95.0365 42.0208 95.3433 41.625 95.5554 41.1023C95.7713 40.5795 95.8793 39.9394 95.8793 39.1818ZM108.033 37.1648C107.968 36.9261 107.874 36.7159 107.749 36.5341C107.624 36.3485 107.47 36.1913 107.288 36.0625C107.107 35.9337 106.898 35.8371 106.663 35.7727C106.429 35.7045 106.171 35.6705 105.891 35.6705C105.326 35.6705 104.838 35.8068 104.425 36.0795C104.016 36.3523 103.699 36.75 103.476 37.2727C103.252 37.7917 103.141 38.4223 103.141 39.1648C103.141 39.911 103.249 40.5473 103.464 41.0739C103.68 41.6004 103.993 42.0019 104.402 42.2784C104.811 42.5549 105.307 42.6932 105.891 42.6932C106.406 42.6932 106.841 42.6098 107.197 42.4432C107.557 42.2727 107.83 42.0322 108.016 41.7216C108.201 41.411 108.294 41.0455 108.294 40.625L108.817 40.6875H105.987V38.6364H111.004V40.1761C111.004 41.2178 110.783 42.1098 110.339 42.8523C109.9 43.5947 109.294 44.1648 108.521 44.5625C107.752 44.9602 106.868 45.1591 105.868 45.1591C104.758 45.1591 103.783 44.9186 102.942 44.4375C102.101 43.9564 101.446 43.2708 100.976 42.3807C100.506 41.4867 100.271 40.4261 100.271 39.1989C100.271 38.2443 100.413 37.3977 100.697 36.6591C100.982 35.9167 101.377 35.2879 101.885 34.7727C102.396 34.2576 102.987 33.8674 103.658 33.6023C104.332 33.3371 105.057 33.2045 105.834 33.2045C106.508 33.2045 107.135 33.3011 107.714 33.4943C108.298 33.6875 108.813 33.9602 109.26 34.3125C109.711 34.6648 110.076 35.0833 110.357 35.5682C110.637 36.053 110.811 36.5852 110.879 37.1648H108.033ZM112.662 45V33.3636H115.474V42.7159H120.315V45H112.662ZM121.771 45V33.3636H129.885V35.6477H124.584V38.0341H129.47V40.3239H124.584V42.7159H129.885V45H121.771ZM135.084 45V33.3636H139.891C140.762 33.3636 141.514 33.5341 142.146 33.875C142.783 34.2121 143.273 34.6837 143.618 35.2898C143.963 35.892 144.135 36.5928 144.135 37.392C144.135 38.1951 143.959 38.8977 143.607 39.5C143.258 40.0985 142.76 40.5625 142.112 40.892C141.464 41.2216 140.696 41.3864 139.805 41.3864H136.839V39.1705H139.283C139.707 39.1705 140.061 39.0966 140.345 38.9489C140.633 38.8011 140.851 38.5947 140.999 38.3295C141.146 38.0606 141.22 37.7481 141.22 37.392C141.22 37.0322 141.146 36.7216 140.999 36.4602C140.851 36.1951 140.633 35.9905 140.345 35.8466C140.057 35.7027 139.703 35.6307 139.283 35.6307H137.896V45H135.084ZM145.521 45V33.3636H148.334V42.7159H153.175V45H145.521ZM157.304 45H154.281L158.207 33.3636H161.952L165.878 45H162.855L160.122 36.2955H160.031L157.304 45ZM156.901 40.4205H163.219V42.5568H156.901V40.4205ZM165.364 33.3636H168.506L170.966 38.233H171.068L173.528 33.3636H176.67L172.415 41.1136V45H169.619V41.1136L165.364 33.3636Z" fill="#F2F4F7"/>
<path d="M44.2161 36.0305C48.948 33.2273 52.535 31.0914 52.8442 30.9253C53.8333 30.3578 54.8547 28.8558 52.8442 27.6892C52.1951 27.3222 48.7001 25.2528 44.2161 22.584L38 29.3571L44.2161 36.0303V36.0305Z" fill="#FFD900"/>
<path d="M38.025 29.8242L19 50.4953C19.4466 50.5591 19.9507 50.4314 20.5451 50.0792C21.793 49.3428 35.022 41.5544 44 36.2352L38.025 29.8242Z" fill="#F43249"/>
<path d="M37.7934 29.8241L44 23.3269C44 23.3269 21.0257 10.2667 19.6357 9.49576C19.112 9.17266 18.5252 9.07669 18 9.17266L37.7934 29.8241Z" fill="#00EE76"/>
<path d="M38 29.7602L18.463 9.13721C17.6701 9.3304 17 10.0687 17 11.5785V48.0377C17 49.4196 17.5185 50.415 18.4933 50.511L38 29.7602Z" fill="#00D3FF"/>
</svg>
